<?xml version="1.0" encoding="UTF-8" standalone="no"?>
<!-- Created with Inkscape (http://www.inkscape.org/) -->
<!-- ClipArt by Arvin61r58 (http://openclipart.org/user-detail/Arvin61r58) -->
<svg id="svg2" xmlns:rdf="http://www.w3.org/1999/02/22-rdf-syntax-ns#" xmlns="http://www.w3.org/2000/svg" height="11in" viewBox="0 0 765.00001 990.00002" width="8.5in" version="1.1" xmlns:cc="http://creativecommons.org/ns#" xmlns:dc="http://purl.org/dc/elements/1.1/">
 <title id="title5594">Border 48 US</title>
 <metadata id="metadata7">
  <rdf:RDF>
   <cc:Work rdf:about="">
    <dc:format>image/svg+xml</dc:format>
    <dc:type rdf:resource="http://purl.org/dc/dcmitype/StillImage"/>
    <dc:title>Border 48 US</dc:title>
    <cc:license rdf:resource="http://creativecommons.org/publicdomain/zero/1.0/"/>
    <dc:creator>
     <cc:Agent>
      <dc:title>Arvin61r58</dc:title>
     </cc:Agent>
    </dc:creator>
    <dc:publisher>
     <cc:Agent>
      <dc:title>Openclipart.org</dc:title>
     </cc:Agent>
    </dc:publisher>
    <dc:identifier>https://openclipart.org/</dc:identifier>
    <dc:source>https://openclipart.org/user-detail/Arvin61r58</dc:source>
    <dc:subject>
     <rdf:Bag>
      <rdf:li>frame</rdf:li>
      <rdf:li>border</rdf:li>
      <rdf:li>flourish</rdf:li>
      <rdf:li>black and white</rdf:li>
      <rdf:li>monochrome</rdf:li>
     </rdf:Bag>
    </dc:subject>
    <dc:description>flouish border fitted to US letter (8.5x11in) paper</dc:description>
   </cc:Work>
   <cc:License rdf:about="http://creativecommons.org/publicdomain/zero/1.0/">
    <cc:permits rdf:resource="http://creativecommons.org/ns#Reproduction"/>
    <cc:permits rdf:resource="http://creativecommons.org/ns#Distribution"/>
    <cc:permits rdf:resource="http://creativecommons.org/ns#DerivativeWorks"/>
   </cc:License>
  </rdf:RDF>
 </metadata>
 <path id="path4392" style="fill:#000000" d="m135.89 22.527c-0.06-0.006-0.11 0.002-0.13 0.026-0.37 0.329 0.51 1.747 2.07 4.24-12.49 2.63-25 7.013-36.76 13.492-0.42-0.049-0.85-0.089-1.279-0.109-7.819-0.294-15.635 4.332-21.797 11.523-3.621 4.241-6.599 9.249-8.935 14.531-3.913 4.578-7.558 9.582-10.881 15.04-7.655-0.64-15.326 0.727-22.059 3.976-8.086 3.924-14.47 10.498-18.01 18.294-3.788 8.39-3.911 17.78-0.802 25.75 3.461 8.78 10.715 15.09 18.806 17.56 0.43 0.12 0.863 0.23 1.295 0.34-4.966 33.81-1.482 53.36 15.305 87.3 1.591 3.22 4.542 8.54 7.74 14.89-1.933 13.08-2.357 25.06-1.976 35.31 0.019 2.88 0.149 5.64 0.373 8.26 0.062 9.13 1.158 15.57 2.291 19.92l0.339 189.77 0.561 314.65 3.365-0.17c1.85-0.07 4.752-0.67 6.448-1.34 5.517-2.18 3.774 4.06-3.645 13.04-5.52 6.68-6.727 9.01-6.727 12.99 0 5.84 2.787 10.55 6.245 10.55 1.393 0 6.738-2.28 11.878-5.07 7.809-4.24 10.822-5.07 18.317-5.04 24.128 0.1 40.928 23.23 40.928 56.37 0 10.59-0.43 12.96-4.18 22.97-2.35 6.28-6.96 15.07-10.56 20.12-8.04 11.29-11.04 11.73-20.69 2.97-8.16-7.41-12.642-15.23-10.385-18.13 0.838-1.07 7.835-5.98 15.535-10.89 7.99-5.1 15.34-10.91 17.1-13.52 5.73-8.5 3.19-22.04-6.33-33.71-5.64-6.9-11.32-9.83-19.09-9.83-16.581 0-27.557 14-27.557 35.13 0 6.74 4.008 26.71 5.641 28.11 2.512 2.16 0.675 5.14-5.836 9.44-3.808 2.52-8.854 6.52-11.213 8.88-3.581 3.59-4.289 5.22-4.289 9.83 0 6.68 3.954 12.48 9.975 14.63 2.222 0.79 5.05 1.81 6.283 2.26l0.016 0.04c4.305 1.58 24.726-0.3 32.24-2.96 7.24-2.57 8.03-2.56 17.94 0.24 9.92 2.79 19.73 2.92 228.44 2.92 11.52 0 20.27-0.01 30.61-0.01s19.09 0.01 30.61 0.01c208.71 0 218.52-0.13 228.44-2.92 9.91-2.8 10.7-2.81 17.94-0.24 7.51 2.66 27.93 4.54 32.24 2.96l0.02-0.04c1.23-0.45 4.06-1.47 6.28-2.26 6.02-2.15 9.97-7.95 9.97-14.63 0-4.61-0.7-6.24-4.29-9.83-2.35-2.36-7.4-6.36-11.21-8.88-6.51-4.3-8.35-7.28-5.83-9.44 1.63-1.4 5.64-21.37 5.64-28.11 0-21.13-10.98-35.13-27.56-35.13-7.77 0-13.45 2.93-19.09 9.83-9.52 11.67-12.06 25.21-6.33 33.71 1.76 2.61 9.11 8.42 17.1 13.52 7.7 4.91 14.7 9.82 15.53 10.89 2.26 2.9-2.22 10.72-10.38 18.13-9.65 8.76-12.65 8.32-20.69-2.97-3.6-5.05-8.21-13.84-10.56-20.12-3.75-10.01-4.18-12.38-4.18-22.97 0-33.14 16.8-56.27 40.93-56.37 7.49-0.03 10.51 0.8 18.31 5.04 5.14 2.79 10.49 5.07 11.88 5.07 3.46 0 6.25-4.71 6.25-10.55 0-3.98-1.21-6.31-6.73-12.99-7.42-8.98-9.16-15.22-3.64-13.04 1.69 0.67 4.59 1.27 6.44 1.34l3.37 0.17 0.56-314.65 0.34-189.77c1.13-4.35 2.23-10.79 2.29-19.92 0.22-2.62 0.35-5.38 0.37-8.26 0.38-10.25-0.04-22.23-1.97-35.31 3.19-6.35 6.15-11.67 7.74-14.89 16.78-33.94 20.27-53.49 15.3-87.3 0.43-0.11 0.87-0.22 1.3-0.34 8.09-2.47 15.34-8.78 18.8-17.56 3.11-7.97 2.99-17.36-0.8-25.75-3.54-7.796-9.92-14.37-18.01-18.294-6.73-3.249-14.4-4.616-22.06-3.976-3.32-5.458-6.97-10.462-10.88-15.04-2.33-5.282-5.31-10.29-8.93-14.531-6.17-7.191-13.98-11.817-21.8-11.523-0.43 0.02-0.86 0.06-1.28 0.109-11.76-6.479-24.27-10.862-36.76-13.492 1.56-2.493 2.44-3.911 2.07-4.24-0.02-0.024-0.07-0.032-0.13-0.026-0.51 0.054-2.25 1.243-4.68 3.731-3.41-0.649-6.81-1.188-10.19-1.59-5.74-0.683-11.41-1.024-16.94-1.061-16.59-0.11-31.89 2.516-43.81 6.864-7.95 2.898-14.41 6.556-18.76 10.756-4.34 4.199-6.6 9.042-5.83 14.058l1.98-0.305c-0.66-4.251 1.19-8.403 5.24-12.316 4.06-3.913 10.29-7.483 18.05-10.314 15.54-5.663 37.19-8.392 59.83-5.696 2.94 0.349 5.89 0.792 8.84 1.326-1.49 1.681-3.13 3.731-4.9 6.293-3.38 4.891-7.23 11.778-10.12 20.36-15.15 0.299-29.05 3.969-39.38 9.429-6.01 3.179-10.82 6.962-13.94 11.098-3.13 4.136-4.57 8.689-3.66 13.195l1.96-0.396c-0.78-3.855 0.41-7.779 3.29-11.594 2.88-3.814 7.47-7.455 13.29-10.533 9.84-5.204 23.2-8.783 37.78-9.18-1.77 5.758-3.1 12.227-3.58 19.334-0.01 0.209-0.02 0.42-0.03 0.629-9 1.158-16.97 4.295-22.99 8.58-8.45 6.014-13.15 14.419-11.01 22.655l1.93-0.5c-1.87-7.23 2.22-14.814 10.24-20.524 5.64-4.015 13.19-7.018 21.74-8.178-0.55 15.805 3.03 33.102 11.25 50.892 7.34 15.97 17.23 30.56 28.74 45.83 0.34 0.45 0.69 0.91 1.03 1.37 11.52 15.25 21.24 27.28 30.56 41.44 8.73 13.29 15.14 25.66 19.27 37.87-1.15 5.99-2.44 13.38-3.15 21.09-1.58 5.91-2.43 11.68-1.98 16.87 0.43 4.8 2.04 9.12 5.22 12.42 0.55 0.97 1.18 1.87 1.88 2.68l0.24 220.15c0.18 176.13-0.1 274.35-0.81 276.97-0.93 3.38-1.81 4.04-5.45 4.04-10.7 0-10.73 13.45-0.06 27.21 5.44 7.02 4.56 8.41-3.05 4.81-7.75-3.66-21.98-5.97-31.9-5.17-6.54 0.53-10.28 1.8-15.24 5.16-7.55 5.13-16.55 17.38-20.85 28.39-3.65 9.31-5.11 27.14-3.23 39.34 1.93 12.49 9.87 28.39 18.57 37.17 5.56 5.62 6.96 7.78 6.04 9.34-0.98 1.64-43.55 2.02-227.43 2.02-11.25 0-20.39-0.01-30.61-0.01s-19.36 0.01-30.61 0.01c-183.88 0-226.45-0.38-227.43-2.02-0.92-1.56 0.48-3.72 6.04-9.34 8.7-8.78 16.64-24.68 18.57-37.17 1.88-12.2 0.42-30.03-3.23-39.34-4.3-11.01-13.3-23.26-20.85-28.39-4.96-3.36-8.7-4.63-15.24-5.16-9.925-0.8-24.155 1.51-31.9 5.17-7.612 3.6-8.492 2.21-3.051-4.81 10.668-13.76 10.637-27.21-0.063-27.21-3.635 0-4.517-0.66-5.441-4.04-0.712-2.62-0.999-100.84-0.813-276.97l0.235-220.15c0.706-0.81 1.331-1.71 1.885-2.68 3.178-3.3 4.792-7.62 5.214-12.42 0.456-5.19-0.394-10.96-1.974-16.87-0.71-7.71-2.001-15.1-3.153-21.09 4.126-12.21 10.538-24.58 19.268-37.87 9.319-14.16 19.043-26.19 30.563-41.44 0.34-0.46 0.69-0.92 1.03-1.37 11.51-15.27 21.4-29.86 28.74-45.83 8.22-17.79 11.8-35.087 11.25-50.892 8.55 1.16 16.1 4.163 21.74 8.178 8.02 5.71 12.11 13.294 10.24 20.524l1.93 0.5c2.14-8.236-2.56-16.641-11.01-22.655-6.02-4.285-13.99-7.422-22.99-8.58-0.01-0.209-0.02-0.42-0.03-0.629-0.48-7.107-1.81-13.576-3.58-19.334 14.58 0.397 27.94 3.976 37.78 9.18 5.82 3.078 10.41 6.719 13.29 10.533 2.88 3.815 4.07 7.739 3.29 11.594l1.96 0.396c0.91-4.506-0.53-9.059-3.66-13.195-3.12-4.136-7.93-7.919-13.94-11.098-10.33-5.461-24.23-9.13-39.38-9.429-2.89-8.582-6.74-15.469-10.12-20.36-1.77-2.562-3.41-4.612-4.9-6.293 2.95-0.534 5.9-0.977 8.84-1.326 22.64-2.696 44.29 0.033 59.83 5.696 7.76 2.831 13.99 6.401 18.05 10.314 4.05 3.913 5.9 8.065 5.24 12.316l1.98 0.305c0.77-5.016-1.49-9.859-5.83-14.058-4.35-4.2-10.81-7.858-18.76-10.756-11.92-4.348-27.22-6.974-43.81-6.864-5.53 0.037-11.2 0.378-16.94 1.061-3.38 0.402-6.78 0.941-10.19 1.59-2.43-2.488-4.17-3.677-4.68-3.731zm3.04 6.082c1.29 2.095 2.77 4.572 4.48 7.87 2.42 4.665 5.15 10.852 7.21 18.238-0.33 0.015-0.66 0.021-0.99 0.039-8.94 0.492-18.17 2.216-27.22 5.471-0.75-1.852-1.58-3.611-2.48-5.262-4.1-7.517-9.7-12.359-15.86-14.092 11.19-5.875 23.04-9.846 34.86-12.264zm487.14 0c11.82 2.418 23.67 6.389 34.86 12.264-6.16 1.733-11.76 6.575-15.86 14.092-0.9 1.651-1.73 3.41-2.48 5.262-9.05-3.255-18.28-4.979-27.22-5.471-0.33-0.018-0.66-0.024-0.99-0.039 2.06-7.386 4.79-13.573 7.21-18.238 1.71-3.298 3.19-5.775 4.48-7.87zm-528.92 22.065c0.379 0.001 0.756 0.016 1.133 0.047 6.057 0.429 11.827 4.938 15.817 12.408 0.08 0.149 0.16 0.305 0.24 0.457-11.98 5.653-23.395 14.235-33.1 26.521-3.327-2.465-6.948-4.499-10.781-6.005-0.511-0.2-1.026-0.378-1.541-0.557 0.048-0.21 0.088-0.417 0.139-0.627 2.026-8.531 6.125-17.554 11.869-23.828 4.672-5.125 10.54-8.434 16.224-8.416zm570.7 0c5.68-0.018 11.55 3.291 16.22 8.416 5.75 6.274 9.85 15.297 11.87 23.828 0.05 0.21 0.09 0.417 0.14 0.627-0.51 0.179-1.03 0.357-1.54 0.557-3.83 1.506-7.45 3.54-10.78 6.005-9.71-12.286-21.12-20.868-33.1-26.521 0.08-0.152 0.16-0.308 0.24-0.457 3.99-7.47 9.76-11.979 15.82-12.408 0.37-0.031 0.75-0.046 1.13-0.047zm-516.7 6.023c1.49 5.828 2.52 12.345 2.65 19.434-1.22 0-2.44 0.025-3.67 0.099-7.35 0.444-15.07 2.257-22.75 5.78-0.66-7.276-2.1-14.048-4.26-19.953 8.85-3.157 17.87-4.823 26.62-5.305 0.47-0.026 0.94-0.036 1.41-0.055zm462.7 0c0.47 0.019 0.94 0.029 1.41 0.055 8.75 0.482 17.77 2.148 26.62 5.305-2.16 5.905-3.6 12.677-4.26 19.953-7.68-3.523-15.4-5.336-22.75-5.78-1.23-0.074-2.45-0.099-3.67-0.099 0.13-7.089 1.16-13.606 2.65-19.434zm-498.67 8.639c2.58 5.673 4.22 12.773 4.88 20.582-8.31 5.085-16.42 12.356-23.802 22.302-0.175-0.36-0.348-0.72-0.531-1.08-3.204-6.19-7.66-11.586-12.952-15.845 9.512-12.067 20.685-20.452 32.405-25.959zm534.64 0c11.72 5.507 22.89 13.892 32.4 25.959-5.29 4.259-9.74 9.655-12.95 15.845-0.18 0.36-0.35 0.72-0.53 1.08-7.38-9.946-15.49-17.217-23.8-22.302 0.66-7.809 2.3-14.909 4.88-20.582zm-583.1 6.891c-1.073 3.141-1.933 6.314-2.567 9.423-0.034 0.17-0.06 0.336-0.093 0.504-1.235-0.274-2.477-0.484-3.721-0.65 2.014-3.258 4.145-6.348 6.381-9.277zm631.56 0c2.24 2.929 4.37 6.019 6.38 9.277-1.24 0.166-2.48 0.376-3.72 0.65-0.03-0.168-0.06-0.334-0.09-0.504-0.63-3.109-1.49-6.282-2.57-9.423zm-545.58 5.902c0.37-0.007 0.74 0.002 1.1 0.002-0.04 14.657-3.96 30.549-12.05 47.389-7.2 14.94-16.82 28.71-28.18 43.83-0.35 0.46-0.69 0.91-1.03 1.36-5 6.61-9.73 12.79-14.276 18.89 5.186-10.36 10.426-21.17 14.316-30.52 5.56-13.25 10.53-28.47 13.18-44.34 1.54-9.17 2.25-18.275 1.97-27.148-0.04-1.177-0.1-2.341-0.18-3.496 7.68-3.61 15.39-5.428 22.7-5.869 0.82-0.05 1.64-0.083 2.45-0.098zm459.6 0c0.81 0.015 1.63 0.048 2.45 0.098 7.31 0.441 15.02 2.259 22.7 5.869-0.08 1.155-0.14 2.319-0.18 3.496-0.28 8.873 0.43 17.978 1.97 27.148 2.65 15.87 7.62 31.09 13.18 44.34 3.89 9.35 9.13 20.16 14.32 30.52-4.55-6.1-9.28-12.28-14.28-18.89-0.34-0.45-0.68-0.9-1.03-1.36-11.36-15.12-20.98-28.89-28.18-43.83-8.09-16.84-12.01-32.732-12.05-47.389 0.36 0 0.73-0.009 1.1-0.002zm-492.09 10c0.04 0.752 0.1 1.498 0.12 2.262 0.3 7.503-0.33 15.369-1.72 23.439-2.41 13.97-6.96 27.93-11.97 40.44-6.986 17.23-21.929 46.24-28.382 60.67-0.29 0.65-0.559 1.27-0.842 1.91 1.117-2.96 2.323-5.94 3.627-8.95 3.627-8.35 9.506-19.81 13.316-29.67 4.298-11.12 7.331-23.38 7.971-36.23 0.49-8.93-0.36-18.41-3.459-27.44-0.499-1.45-1.063-2.88-1.678-4.3 7.147-9.86 14.987-17.068 23.017-22.131zm524.58 0c8.03 5.063 15.87 12.271 23.02 22.131-0.62 1.42-1.18 2.85-1.68 4.3-3.1 9.03-3.95 18.51-3.46 27.44 0.64 12.85 3.67 25.11 7.97 36.23 3.81 9.86 9.69 21.32 13.32 29.67 1.3 3.01 2.51 5.99 3.62 8.95-0.28-0.64-0.55-1.26-0.84-1.91-6.45-14.43-21.39-43.44-28.38-60.67-5.01-12.51-9.56-26.47-11.97-40.44-1.39-8.07-2.02-15.936-1.72-23.439 0.02-0.764 0.08-1.51 0.12-2.262zm-591.86 2.699c-5.172 10.492-9.254 22.412-11.93 35.942-0.897 4.53-1.665 8.75-2.361 12.83-0.07-0.03-0.14-0.04-0.209-0.07-5.71-1.9-10.936-6.91-13.231-13.24-2.129-5.78-1.777-12.88 1.111-18.97 2.686-5.72 7.738-10.635 13.899-13.539 3.861-1.833 8.235-2.822 12.721-2.953zm659.14 0c4.48 0.131 8.86 1.12 12.72 2.953 6.16 2.904 11.21 7.819 13.9 13.539 2.89 6.09 3.24 13.19 1.11 18.97-2.3 6.33-7.52 11.34-13.23 13.24-0.07 0.03-0.14 0.04-0.21 0.07-0.7-4.08-1.46-8.3-2.36-12.83-2.68-13.53-6.76-25.45-11.93-35.942zm-656.94 0.002c2.562 0.087 5.137 0.461 7.656 1.113-0.56 8.887 0.569 16.597 2.367 22.257 0.233 0.73 0.482 1.42 0.735 2.09-0.21 0.49-0.418 0.99-0.623 1.48-0.953-1.25-2.087-2.32-3.344-3.15-3.028-1.96-6.446-2.43-9.356-1.95-2.952 0.49-5.303 1.87-7.029 3.51 2.528-9.28 5.765-17.714 9.594-25.35zm654.74 0c3.82 7.636 7.06 16.07 9.59 25.35-1.73-1.64-4.08-3.02-7.03-3.51-2.91-0.48-6.33-0.01-9.36 1.95-1.25 0.83-2.39 1.9-3.34 3.15-0.2-0.49-0.41-0.99-0.62-1.48 0.25-0.67 0.5-1.36 0.73-2.09 1.8-5.66 2.93-13.37 2.37-22.257 2.52-0.652 5.09-1.026 7.66-1.113zm-642.43 2.678c2.833 1.178 5.539 2.753 8.043 4.666-2.445 3.776-4.751 7.826-6.884 12.196-1.05-4.62-1.605-10.439-1.159-16.862zm630.12 0c0.44 6.423-0.11 12.242-1.16 16.862-2.14-4.37-4.44-8.42-6.89-12.196 2.51-1.913 5.21-3.488 8.05-4.666zm-620.54 5.894c3.976 3.368 7.366 7.588 9.835 12.338 1.02 1.93 1.881 3.95 2.6 6.05 0.056 0.17 0.1 0.34 0.154 0.5-5.975 10.13-11.278 22.38-15.548 37.09-9.418 32.44-12.349 49.65-9.666 74.31-0.849 3.32-1.566 6.58-2.213 9.8-0.029-0.08-0.088-0.24-0.116-0.32-12.66-37.29-12.492-54.87-2.654-96.21 0.568-0.42 1.122-0.85 1.647-1.31 4.085-3.5 6.617-8.28 7.129-13.21 0.255-2.72-0.187-5.39-1.202-7.74-0.127-0.3-0.266-0.59-0.412-0.87 0.129-0.32 0.267-0.62 0.397-0.94 2.648 5.74 5.921 8.94 8.246 10.54 3.043 2.09 4.962 2.01 5.086 1.59 0.187-0.62-1.407-1.61-3.848-4.42-2.086-2.41-5.084-6.61-7.074-13.23 2.341-5.04 4.894-9.7 7.639-13.968zm610.96 0c2.75 4.268 5.3 8.928 7.64 13.968-1.99 6.62-4.99 10.82-7.08 13.23-2.44 2.81-4.03 3.8-3.84 4.42 0.12 0.42 2.04 0.5 5.08-1.59 2.33-1.6 5.6-4.8 8.25-10.54 0.13 0.32 0.27 0.62 0.4 0.94-0.15 0.28-0.29 0.57-0.42 0.87-1.01 2.35-1.45 5.02-1.2 7.74 0.51 4.93 3.05 9.71 7.13 13.21 0.53 0.46 1.08 0.89 1.65 1.31 9.84 41.34 10 58.92-2.66 96.21-0.02 0.08-0.08 0.24-0.11 0.32-0.65-3.22-1.37-6.48-2.21-9.8 2.68-24.66-0.25-41.87-9.67-74.31-4.27-14.71-9.57-26.96-15.55-37.09 0.06-0.16 0.1-0.33 0.15-0.5 0.72-2.1 1.59-4.12 2.6-6.05 2.47-4.75 5.86-8.97 9.84-12.338zm-634.14 17.488c1.791 0.05 3.725 0.61 5.226 1.81 1.243 0.96 2.264 2.39 2.846 4.03 0.279 0.78 0.447 1.63 0.512 2.51-0.927 2.65-1.801 5.39-2.617 8.23-0.843 1.11-1.86 2.16-3.016 3.09-2.436 1.93-5.508 3.31-8.816 3.83-2.384 0.37-4.921 0.29-7.405-0.26 0.592-3.45 1.249-7.05 1.987-10.85 0.314 0.59 0.612 0.87 0.732 0.83 0.289-0.1 0.117-1 0.207-2.66 0.084-1.54 0.464-4.17 2.19-6.48 1.441-1.94 4.136-3.88 7.396-4.06 0.248-0.02 0.502-0.02 0.758-0.02zm657.32 0c0.25 0 0.51 0 0.76 0.02 3.26 0.18 5.95 2.12 7.39 4.06 1.73 2.31 2.11 4.94 2.19 6.48 0.09 1.66-0.08 2.56 0.21 2.66 0.12 0.04 0.42-0.24 0.73-0.83 0.74 3.8 1.4 7.4 1.99 10.85-2.49 0.55-5.02 0.63-7.41 0.26-3.3-0.52-6.38-1.9-8.81-3.83-1.16-0.93-2.18-1.98-3.02-3.09-0.82-2.84-1.69-5.58-2.62-8.23 0.07-0.88 0.24-1.73 0.52-2.51 0.58-1.64 1.6-3.07 2.84-4.03 1.5-1.2 3.44-1.76 5.23-1.81zm-620.77 3.99c1.786 6.62 2.272 13.73 2.019 20.66-0.484 11.59-3.185 22.89-7.021 33.3-3.318 9.01-9.101 20.87-12.653 29.57-2.742 6.72-5.003 13.34-6.859 19.82-1.722-21.7 1.395-38.29 10.103-68.29 4.012-13.82 8.915-25.4 14.411-35.06zm584.22 0c5.49 9.66 10.4 21.24 14.41 35.06 8.71 30 11.83 46.6 10.1 68.29-1.85-6.47-4.11-13.1-6.86-19.82-3.55-8.7-9.33-20.56-12.65-29.57-3.83-10.41-6.54-21.71-7.02-33.3-0.25-6.93 0.23-14.04 2.02-20.66zm-617.62 23.67c-9.378 40.02-9.328 58.42 3.184 95.26 0.304 0.9 0.826 2.3 1.269 3.52-0.161 0.9-0.313 1.79-0.461 2.68-2.72-5.29-5.136-9.69-6.476-12.4-16.678-33.72-20.094-52.57-15.151-86.01 3.363 0.58 6.741 0.51 9.926-0.14 2.784-0.57 5.378-1.57 7.709-2.91zm651.02 0c2.33 1.34 4.93 2.34 7.71 2.91 3.18 0.65 6.56 0.72 9.92 0.14 4.95 33.44 1.53 52.29-15.15 86.01-1.34 2.71-3.75 7.11-6.47 12.4-0.15-0.89-0.3-1.78-0.46-2.68 0.44-1.22 0.96-2.62 1.27-3.52 12.51-36.84 12.56-55.24 3.18-95.26zm-638.59 115.54c0.015 0.08 0.029 0.15 0.045 0.23-0.02-0.06-0.039-0.12-0.059-0.19 0.005-0.01 0.01-0.03 0.014-0.04zm626.16 0c0.01 0.01 0.01 0.03 0.02 0.04-0.02 0.07-0.04 0.13-0.06 0.19 0.01-0.08 0.03-0.15 0.04-0.23zm-627.68 5.66c0.832 2.1 1.619 4.22 2.329 6.34 0.574 1.71 1.088 3.42 1.55 5.12 0.036 0.19 0.077 0.37 0.112 0.56 0.063 0.71 0.142 1.42 0.193 2.13 0.482 6.68 0.402 13.27-0.746 18.66-0.427 2-0.998 3.82-1.731 5.43-1.021 1.39-2.287 2.55-3.845 3.45-1.245-10.13-1.91-24.93 2.138-41.69zm629.2 0c4.05 16.76 3.38 31.56 2.14 41.69-1.56-0.9-2.83-2.06-3.85-3.45-0.73-1.61-1.3-3.43-1.73-5.43-1.15-5.39-1.23-11.98-0.74-18.66 0.05-0.71 0.13-1.42 0.19-2.13 0.03-0.19 0.08-0.37 0.11-0.56 0.46-1.7 0.98-3.41 1.55-5.12 0.71-2.12 1.5-4.24 2.33-6.34zm-593.15 598.33c1.04 0.05 2.07 0.39 3.37 0.98 10.49 4.76 16.49 19.01 12.45 29.53-1.55 4.01-8.63 10.6-20.729 19.26-5.55 3.98-10.441 7.23-10.867 7.23-1.137 0-1.889-2.07-4.322-11.92-2.761-11.17-2.728-16.71 0.148-25.54 3.182-9.77 6.036-13.51 13.129-17.21 3.271-1.7 5.081-2.41 6.821-2.33zm557.1 0c1.74-0.08 3.55 0.63 6.82 2.33 7.09 3.7 9.95 7.44 13.13 17.21 2.88 8.83 2.91 14.37 0.15 25.54-2.44 9.85-3.19 11.92-4.32 11.92-0.43 0-5.32-3.25-10.87-7.23-12.1-8.66-19.18-15.25-20.73-19.26-4.04-10.52 1.96-24.77 12.45-29.53 1.3-0.59 2.33-0.93 3.37-0.98zm-578.7 69.97h0.002c2.067-0.03 3.736 1.78 6.414 5.42 2.571 3.49 7.844 8.53 11.718 11.19 3.87 2.67 6.78 5.43 6.47 6.15-0.32 0.71-2.83 2.09-5.58 3.05-5.96 2.09-17.515 2.04-23.296-0.1-5.051-1.87-9.869-7.79-9.869-12.12 0-2.11 1.809-4.78 5.328-7.88 4.279-3.77 6.745-5.67 8.813-5.71zm600.3 0c2.07 0.04 4.54 1.94 8.82 5.71 3.52 3.1 5.32 5.77 5.32 7.88 0 4.33-4.81 10.25-9.87 12.12-5.78 2.14-17.33 2.19-23.29 0.1-2.75-0.96-5.26-2.34-5.58-3.05-0.31-0.72 2.6-3.48 6.47-6.15 3.87-2.66 9.15-7.7 11.72-11.19 2.68-3.64 4.34-5.45 6.41-5.42z">
  <title id="title5661">Border 48 US  --  by Arvin61r58</title>
 </path>
</svg>
