<?xml version="1.0" encoding="UTF-8" standalone="no"?>
<!-- Created with Inkscape (http://www.inkscape.org/) -->

<!-- ClipArt by Arvin61r58 (http://openclipart.org/user-detail/Arvin61r58) -->

<svg
   xmlns:dc="http://purl.org/dc/elements/1.1/"
   xmlns:cc="http://creativecommons.org/ns#"
   xmlns:rdf="http://www.w3.org/1999/02/22-rdf-syntax-ns#"
   xmlns:svg="http://www.w3.org/2000/svg"
   xmlns="http://www.w3.org/2000/svg"
   xmlns:sodipodi="http://sodipodi.sourceforge.net/DTD/sodipodi-0.dtd"
   xmlns:inkscape="http://www.inkscape.org/namespaces/inkscape"
   id="svg4743"
   height="11.693in"
   viewBox="0 0 744.0945 1052.3622"
   width="8.2677in"
   version="1.1"
   inkscape:version="0.91 r13725"
   sodipodi:docname="Flourish-Border-A4--Arvin61r58.svg">
  <defs
     id="defs4162" />
  <sodipodi:namedview
     pagecolor="#ffffff"
     bordercolor="#666666"
     borderopacity="1"
     objecttolerance="10"
     gridtolerance="10"
     guidetolerance="10"
     inkscape:pageopacity="0"
     inkscape:pageshadow="2"
     inkscape:window-width="640"
     inkscape:window-height="480"
     id="namedview4160"
     showgrid="false"
     inkscape:zoom="0.46656595"
     inkscape:cx="-18.037681"
     inkscape:cy="526.18499"
     inkscape:current-layer="svg4743" />
  <title
     id="title5567">Border 48 A4</title>
  <metadata
     id="metadata4748">
    <rdf:RDF>
      <cc:Work
         rdf:about="">
        <dc:format>image/svg+xml</dc:format>
        <dc:type
           rdf:resource="http://purl.org/dc/dcmitype/StillImage" />
        <dc:title>Border 48 A4</dc:title>
        <dc:subject>
          <rdf:Bag>
            <rdf:li>frame</rdf:li>
            <rdf:li>border</rdf:li>
            <rdf:li>black and white</rdf:li>
            <rdf:li>monochrome</rdf:li>
          </rdf:Bag>
        </dc:subject>
        <dc:description>flourish border fitted to A4 (210x297mm) paper</dc:description>
        <dc:creator>
          <cc:Agent>
            <dc:title>Arvin61r58</dc:title>
          </cc:Agent>
        </dc:creator>
        <dc:publisher>
          <cc:Agent>
            <dc:title>Openclipart.org</dc:title>
          </cc:Agent>
        </dc:publisher>
        <dc:identifier>https://openclipart.org/</dc:identifier>
        <dc:source>https://openclipart.org/user-detail/Arvin61r58</dc:source>
        <cc:license
           rdf:resource="http://creativecommons.org/publicdomain/zero/1.0/" />
      </cc:Work>
      <cc:License
         rdf:about="http://creativecommons.org/publicdomain/zero/1.0/">
        <cc:permits
           rdf:resource="http://creativecommons.org/ns#Reproduction" />
        <cc:permits
           rdf:resource="http://creativecommons.org/ns#Distribution" />
        <cc:permits
           rdf:resource="http://creativecommons.org/ns#DerivativeWorks" />
      </cc:License>
    </rdf:RDF>
  </metadata>
  <path
     id="path4392"
     style="fill:#000000"
     transform="translate(0 -.0049439)"
     d="m132.29 22.225c-0.06-0.012-0.1-0.007-0.13 0.015-0.39 0.308 0.48 1.866 2 4.592-12.11 2.797-24.25 7.454-35.648 14.33-0.439-0.057-0.88-0.1-1.323-0.123-7.601-0.313-15.199 4.62-21.189 12.291-3.527 4.532-6.428 9.886-8.701 15.533-4.142 5.31-7.978 11.156-11.434 17.58-6.964-0.668-13.969 0.285-20.324 2.797-9.026 3.583-16.365 10.267-20.605 18.47-4.544 8.83-5.0735 18.99-1.981 27.67 3.453 9.57 11.176 16.54 19.85 19.27 1.213 0.38 2.438 0.67 3.664 0.88-4.765 35.85-1.355 56.63 14.912 92.72 1.518 3.37 4.317 8.92 7.365 15.54-2.033 14.68-2.39 28-1.91 39.33 0.058 3.63 0.281 7.06 0.611 10.28 0.225 8.34 1.182 14.34 2.168 18.52l0.328 202.41 0.545 335.63 3.272-0.18c1.798-0.07 4.621-0.72 6.269-1.43 5.365-2.32 3.67 4.33-3.543 13.91-5.366 7.13-6.541 9.62-6.541 13.85 0 6.23 2.711 11.26 6.073 11.26 1.354 0 6.551-2.44 11.548-5.41 7.592-4.52 10.52-5.41 17.807-5.37 23.457 0.1 39.787 24.78 39.787 60.12 0 11.3-0.42 13.83-4.06 24.5-2.28 6.7-6.77 16.08-10.26 21.49-7.82 12-10.74 12.5-20.12 3.1-7.934-7.86-12.294-16.2-10.099-19.29 0.814-1.15 7.615-6.38 15.109-11.63 7.77-5.43 14.91-11.63 16.62-14.41 5.58-9.07 3.1-23.52-6.15-35.96-5.48-7.36-11-10.48-18.563-10.48-16.121 0-26.791 14.92-26.791 37.47 0 7.18 3.895 28.49 5.482 29.98 2.442 2.31 0.658 5.48-5.672 10.07-3.702 2.69-8.609 6.95-10.902 9.45-3.482 3.9-4.17 5.6-4.17 10.5 0 7.1 3.843 13.3 9.697 15.6 2.16 0.9 4.91 1.9 6.11 2.4l0.015 0.1c4.186 1.7 24.039-0.3 31.344-3.2 7.04-2.7 7.81-2.7 17.44 0.3 9.65 2.9 19.18 3.1 222.1 3.1h59.51c202.92 0 212.45-0.2 222.1-3.1 9.64-3 10.4-3 17.44-0.3 7.31 2.9 27.16 4.9 31.35 3.2l0.01-0.1c1.2-0.5 3.95-1.5 6.11-2.4 5.85-2.3 9.7-8.5 9.7-15.6 0-4.9-0.69-6.6-4.17-10.5-2.29-2.5-7.2-6.76-10.9-9.45-6.33-4.59-8.12-7.76-5.68-10.07 1.59-1.49 5.49-22.8 5.49-29.98 0-22.55-10.67-37.47-26.79-37.47-7.56 0-13.08 3.12-18.56 10.48-9.26 12.44-11.73 26.89-6.16 35.96 1.71 2.78 8.86 8.98 16.62 14.41 7.5 5.25 14.3 10.48 15.11 11.63 2.2 3.09-2.16 11.43-10.1 19.29-9.38 9.4-12.3 8.9-20.11-3.1-3.5-5.41-7.99-14.79-10.27-21.49-3.64-10.67-4.06-13.2-4.06-24.5 0-35.34 16.33-60.02 39.79-60.12 7.29-0.04 10.22 0.85 17.81 5.37 4.99 2.97 10.19 5.41 11.55 5.41 3.36 0 6.07-5.03 6.07-11.26 0-4.23-1.18-6.72-6.54-13.85-7.22-9.58-8.91-16.23-3.55-13.91 1.65 0.71 4.47 1.36 6.27 1.43l3.27 0.18 0.55-335.63 0.33-202.42c0.98-4.17 1.94-10.17 2.17-18.51 0.33-3.2 0.55-6.62 0.61-10.24 0.48-11.33 0.12-24.68-1.91-39.37 3.04-6.62 5.84-12.17 7.36-15.54 16.27-36.09 19.68-56.87 14.91-92.72 1.23-0.21 2.45-0.5 3.67-0.88 8.67-2.73 16.4-9.7 19.85-19.27 3.09-8.68 2.56-18.84-1.98-27.67-4.24-8.203-11.58-14.887-20.61-18.47-6.35-2.512-13.36-3.465-20.32-2.797-3.46-6.422-7.29-12.265-11.43-17.574-2.28-5.649-5.18-11.006-8.71-15.539-5.99-7.671-13.59-12.604-21.19-12.291-0.44 0.023-0.88 0.066-1.32 0.123-11.4-6.876-23.53-11.533-35.64-14.33 1.52-2.726 2.38-4.284 2-4.592-0.03-0.022-0.08-0.027-0.14-0.015-0.51 0.094-2.18 1.418-4.49 4.045-3.33-0.697-6.65-1.273-9.95-1.704-5.58-0.729-11.1-1.093-16.48-1.132-16.14-0.119-31.03 2.686-42.63 7.328-7.74 3.094-14.02 7-18.25 11.476-4.23 4.477-6.4 9.602-5.65 14.895l1.98-0.279c-0.65-4.593 1.18-9.066 5.13-13.243 3.94-4.176 9.99-7.977 17.53-10.994 15.09-6.034 36.11-8.942 58.12-6.068 2.9 0.38 5.83 0.865 8.76 1.451-1.53 1.901-3.24 4.241-5.08 7.18-3.27 5.229-6.94 12.448-9.72 21.347-14.73 0.327-28.26 4.244-38.3 10.069-5.85 3.394-10.52 7.434-13.55 11.836-3.03 4.401-4.42 9.209-3.54 13.968l1.97-0.363c-0.77-4.159 0.4-8.394 3.21-12.473s7.26-7.958 12.92-11.238c9.55-5.544 22.53-9.352 36.68-9.777-1.78 6.179-3.11 13.109-3.58 20.717-0.02 0.239-0.02 0.482-0.03 0.722-8.73 1.25-16.47 4.595-22.3 9.153-8.22 6.417-12.75 15.329-10.68 24.049l1.94-0.46c-1.84-7.78 2.18-15.926 9.97-22.013 5.46-4.26 12.73-7.448 20.98-8.694-0.52 16.464 2.91 34.457 10.81 53.277 7.07 16.89 16.64 32.58 27.83 49.12l1.26 1.86c11.09 16.35 20.51 29.37 29.52 44.49 8.59 14.44 14.89 27.74 18.94 40.81-1.11 6.35-2.34 14.13-3.02 22.25-1.53 6.3-2.36 12.44-1.92 17.95 0.41 5.1 1.96 9.68 5.05 13.19 0.55 1.06 1.17 2.04 1.88 2.92l0.23 234.84c0.18 187.87-0.1 292.64-0.79 295.43-0.9 3.61-1.75 4.31-5.29 4.31-10.4 0-10.43 14.35-0.06 29.03 5.29 7.49 4.43 8.96-2.97 5.13-7.53-3.91-21.36-6.37-31.01-5.51-6.36 0.56-9.99 1.91-14.82 5.5-7.34 5.47-16.09 18.54-20.27 30.27-3.54 9.94-4.96 28.96-3.13 41.97 1.87 13.32 9.59 30.28 18.04 39.64 5.42 6 6.78 8.3 5.88 10-0.96 1.7-42.34 2.1-221.11 2.1h-59.53c-178.76 0-220.15-0.4-221.1-2.1-0.9-1.7 0.46-4 5.87-10 8.46-9.36 16.18-26.32 18.05-39.64 1.83-13.01 0.41-32.03-3.14-41.97-4.18-11.73-12.93-24.8-20.27-30.27-4.82-3.59-8.46-4.94-14.82-5.5-9.646-0.86-23.48 1.6-31.011 5.51-7.399 3.83-8.256 2.36-2.966-5.13 10.371-14.68 10.342-29.03-0.061-29.03-3.534 0-4.393-0.7-5.291-4.31-0.692-2.79-0.973-107.56-0.791-295.43l0.229-234.84c0.707-0.87 1.331-1.85 1.88-2.91 3.09-3.51 4.642-8.1 5.051-13.2 0.441-5.5-0.384-11.64-1.916-17.93-0.68-8.12-1.912-15.91-3.023-22.27 4.053-13.06 10.349-26.36 18.939-40.81 9.015-15.12 18.43-28.14 29.52-44.49l1.26-1.86c11.19-16.54 20.76-32.23 27.84-49.12 7.9-18.82 11.33-36.813 10.8-53.277 8.25 1.246 15.53 4.434 20.98 8.694 7.8 6.087 11.81 14.233 9.97 22.013l1.95 0.46c2.06-8.72-2.47-17.632-10.69-24.049-5.83-4.558-13.57-7.903-22.29-9.153-0.02-0.24-0.02-0.483-0.04-0.722-0.46-7.608-1.8-14.538-3.58-20.717 14.15 0.424 27.13 4.233 36.69 9.777 5.65 3.28 10.1 7.159 12.91 11.238s3.98 8.314 3.21 12.473l1.97 0.363c0.88-4.759-0.5-9.567-3.53-13.968-3.03-4.402-7.71-8.442-13.56-11.836-10.04-5.825-23.56-9.742-38.29-10.069-2.79-8.899-6.46-16.118-9.73-21.347-1.83-2.939-3.54-5.279-5.07-7.18 2.93-0.586 5.85-1.071 8.76-1.451 22-2.874 43.03 0.034 58.11 6.068 7.55 3.017 13.6 6.818 17.54 10.994 3.94 4.177 5.77 8.65 5.13 13.243l1.98 0.279c0.74-5.293-1.43-10.418-5.66-14.895-4.22-4.476-10.51-8.382-18.24-11.476-11.61-4.642-26.5-7.447-42.64-7.328-5.38 0.039-10.9 0.403-16.48 1.132-3.3 0.431-6.62 1.007-9.95 1.704-2.31-2.627-3.98-3.951-4.49-4.045zm2.87 6.429c1.25 2.28 2.71 4.985 4.39 8.573 2.35 5.01 4.99 11.584 6.98 19.392-0.3 0.015-0.59 0.019-0.89 0.037-8.69 0.525-17.65 2.361-26.44 5.821-0.74-1.994-1.54-3.887-2.43-5.663-4-8.044-9.47-13.215-15.48-15.048 10.87-6.276 22.38-10.525 33.87-13.112zm473.78 0c11.48 2.587 22.99 6.835 33.86 13.112-6.01 1.833-11.48 7.004-15.48 15.048-0.88 1.776-1.69 3.669-2.43 5.663-8.78-3.46-17.75-5.296-26.43-5.821-0.3-0.018-0.6-0.022-0.9-0.037 1.99-7.808 4.63-14.382 6.98-19.392 1.68-3.588 3.14-6.293 4.4-8.573zm-514.32 23.582c0.368 0.002 0.735 0.018 1.102 0.051 5.885 0.458 11.495 5.267 15.375 13.234 0.09 0.173 0.17 0.355 0.25 0.53-11.91 6.153-23.23 15.583-32.801 29.135-2.953-2.167-6.135-3.996-9.488-5.42-0.73-0.309-1.467-0.592-2.207-0.86 0.139-0.755 0.291-1.513 0.457-2.275 1.97-9.099 5.955-18.724 11.539-25.416 4.542-5.467 10.247-8.997 15.773-8.979zm554.85 0c5.53-0.018 11.23 3.512 15.77 8.979 5.59 6.692 9.57 16.317 11.54 25.416 0.17 0.762 0.32 1.52 0.46 2.275-0.74 0.268-1.48 0.551-2.21 0.86-3.35 1.424-6.53 3.253-9.49 5.42-9.57-13.552-20.89-22.982-32.8-29.135 0.08-0.176 0.16-0.357 0.25-0.53 3.88-7.967 9.49-12.776 15.38-13.234 0.37-0.033 0.73-0.049 1.1-0.051zm-502.46 6.364c1.46 6.258 2.48 13.253 2.58 20.857-1.15 0.003-2.3 0.028-3.47 0.105-7.14 0.474-14.64 2.405-22.1 6.149-0.64-7.802-2.05-15.062-4.17-21.387 8.61-3.378 17.4-5.157 25.91-5.672 0.42-0.025 0.83-0.033 1.25-0.052zm450.07 0c0.42 0.019 0.83 0.027 1.25 0.052 8.52 0.515 17.3 2.296 25.91 5.674-2.12 6.325-3.52 13.584-4.16 21.385-7.46-3.745-14.96-5.675-22.11-6.149-1.17-0.077-2.32-0.102-3.47-0.105 0.1-7.604 1.12-14.599 2.58-20.857zm-484.94 9.232c2.52 6.068 4.12 13.672 4.76 22.037-8.07 5.402-15.93 13.131-23.097 23.691-0.143-0.3-0.275-0.61-0.424-0.9-3.248-6.39-7.827-11.95-13.287-16.299 9.363-13.312 20.418-22.527 32.048-28.529zm519.82 0c11.62 6.002 22.68 15.217 32.04 28.529-5.46 4.349-10.04 9.909-13.29 16.299-0.15 0.29-0.28 0.6-0.42 0.9-7.16-10.56-15.03-18.289-23.1-23.691 0.64-8.365 2.24-15.969 4.77-22.037zm-566.92 7.369c-1.047 3.359-1.884 6.753-2.502 10.078-0.138 0.748-0.26 1.488-0.377 2.225-1.392-0.337-2.794-0.607-4.201-0.809 2.213-4.066 4.579-7.894 7.08-11.494zm614.01 0.004c2.5 3.599 4.87 7.425 7.08 11.49-1.41 0.202-2.81 0.472-4.2 0.809-0.12-0.737-0.24-1.477-0.38-2.225-0.61-3.324-1.45-6.716-2.5-10.074zm-530.42 6.252c0.32-0.007 0.64 0.003 0.96 0.002-0.07 15.436-3.87 32.151-11.74 50.121-7.01 15.93-16.37 30.84-27.44 47.24-0.42 0.61-0.83 1.23-1.25 1.84-4.75 6.99-9.228 13.52-13.551 19.98 5.071-11.12 10.211-22.74 14.011-32.77 5.41-14.13 10.24-30.36 12.82-47.3 1.49-9.77 2.19-19.49 1.92-28.955-0.04-1.273-0.11-2.53-0.19-3.779 7.48-3.863 14.98-5.807 22.08-6.277 0.8-0.053 1.59-0.086 2.38-0.102zm446.83 0c0.79 0.016 1.58 0.049 2.38 0.102 7.1 0.47 14.61 2.414 22.08 6.277-0.08 1.249-0.14 2.506-0.19 3.779-0.26 9.465 0.43 19.185 1.92 28.955 2.59 16.94 7.41 33.17 12.82 47.3 3.8 10.03 8.95 21.65 14.01 32.77-4.32-6.46-8.8-12.99-13.54-19.98-0.42-0.61-0.84-1.23-1.25-1.84-11.07-16.4-20.44-31.31-27.44-47.24-7.88-17.97-11.67-34.685-11.75-50.121 0.32 0.001 0.64-0.009 0.96-0.002zm-478.42 10.691c0.04 0.817 0.1 1.625 0.12 2.454 0.3 8.008-0.32 16.388-1.68 25.008-2.33 14.9-6.76 29.79-11.63 43.13-6.793 18.38-21.32 49.32-27.594 64.72-0.084 0.2-0.161 0.4-0.244 0.61 0.976-2.77 2.012-5.56 3.129-8.36 3.599-9.04 9.26-21.1 12.953-31.67 4.162-11.93 6.976-24.88 7.703-38.38 0.533-8.77 0.021-18.14-2.598-27.17-0.672-2.32-1.49-4.6-2.445-6.84 6.916-10.46 14.506-18.115 22.286-23.502zm510.01 0c7.78 5.387 15.37 13.042 22.29 23.512-0.96 2.23-1.77 4.51-2.45 6.83-2.61 9.03-3.13 18.4-2.6 27.17 0.73 13.5 3.55 26.45 7.71 38.38 3.69 10.57 9.35 22.63 12.95 31.67 1.12 2.8 2.15 5.58 3.13 8.34-0.09-0.2-0.16-0.39-0.24-0.59-6.28-15.4-20.81-46.34-27.6-64.72-4.87-13.34-9.29-28.23-11.63-43.13-1.35-8.62-1.97-17-1.68-25.008 0.03-0.829 0.08-1.637 0.12-2.454zm-576.78 3.78c0.321-0.007 0.642 0.002 0.964 0.004-3.813 8.628-6.994 18.158-9.414 28.668-0.207 0.33-0.403 0.67-0.566 1-1.292 2.64-1.371 5.15-1.094 7.01-0.051 0.27-0.106 0.54-0.156 0.82-0.932 5.17-1.727 9.97-2.436 14.58-0.797-0.18-1.59-0.4-2.371-0.67-6.238-2.14-11.906-7.73-14.228-14.75-2.154-6.39-1.48-14.17 2.008-20.67 3.241-6.1 9.094-11.15 16.033-13.826 3.509-1.359 7.347-2.085 11.26-2.166zm643.55 0c3.92 0.081 7.75 0.807 11.26 2.166 6.94 2.676 12.79 7.726 16.04 13.826 3.48 6.5 4.16 14.28 2 20.67-2.32 7.02-7.98 12.61-14.22 14.75-0.78 0.27-1.58 0.49-2.37 0.67-0.71-4.61-1.51-9.41-2.44-14.58-0.05-0.27-0.11-0.54-0.16-0.82 0.28-1.86 0.2-4.36-1.09-7.01-0.16-0.33-0.36-0.67-0.57-1-2.42-10.51-5.6-20.04-9.41-28.668 0.32-0.002 0.64-0.011 0.96-0.004zm-640.46 0.076c2.618 0.171 5.24 0.631 7.793 1.377-0.399 9.009 0.682 16.819 2.362 22.619 0.226 0.78 0.468 1.52 0.714 2.24-0.178 0.45-0.354 0.91-0.529 1.38-0.958-1.2-2.075-2.22-3.299-3.03-2.896-1.88-6.173-2.46-9.058-2.1-2.73 0.35-4.964 1.47-6.702 2.91 2.334-9.25 5.273-17.7 8.719-25.396zm637.36 0c3.44 7.696 6.38 16.146 8.72 25.396-1.74-1.43-3.98-2.56-6.71-2.91-2.88-0.36-6.16 0.22-9.05 2.1-1.23 0.81-2.34 1.83-3.3 3.03-0.18-0.47-0.35-0.93-0.53-1.38 0.25-0.72 0.49-1.46 0.71-2.24 1.68-5.8 2.76-13.61 2.37-22.619 2.55-0.746 5.17-1.206 7.79-1.377zm-625.05 3.035c2.644 1.171 5.167 2.701 7.512 4.511-2.239 3.84-4.357 7.94-6.323 12.35-0.963-4.66-1.502-10.45-1.189-16.861zm612.74 0c0.31 6.411-0.23 12.201-1.19 16.861-1.97-4.41-4.09-8.51-6.32-12.35 2.34-1.81 4.86-3.34 7.51-4.511zm-603.7 5.761c3.96 3.39 7.326 7.62 9.75 12.39 1.167 2.24 2.105 4.61 2.865 7.07-5.844 10.84-11.028 23.94-15.199 39.71-9.104 34.4-11.973 52.7-9.44 78.75-0.844 3.54-1.562 7.01-2.207 10.44-12.277-39.73-12.081-58.55-2.474-102.77 0.549-0.41 1.086-0.84 1.595-1.3 4.282-3.73 6.917-8.79 7.422-13.98 0.253-2.87-0.226-5.67-1.301-8.14-0.203-0.47-0.433-0.91-0.677-1.35 0.075-0.2 0.154-0.4 0.23-0.6 2.573 6.11 5.752 9.52 8.01 11.22 2.958 2.23 4.823 2.14 4.943 1.7 0.182-0.67-1.365-1.72-3.738-4.72-2.026-2.56-4.938-7.03-6.873-14.09 2.18-5.16 4.553-9.93 7.094-14.33zm594.64 0c2.54 4.4 4.91 9.17 7.09 14.33-1.93 7.06-4.84 11.53-6.87 14.09-2.37 3-3.92 4.05-3.74 4.72 0.12 0.44 1.99 0.53 4.94-1.7 2.26-1.7 5.44-5.11 8.01-11.22l0.24 0.6c-0.25 0.44-0.48 0.88-0.68 1.35-1.08 2.47-1.56 5.27-1.3 8.14 0.5 5.19 3.14 10.25 7.42 13.98 0.51 0.46 1.04 0.89 1.59 1.3 9.61 44.22 9.81 63.04-2.47 102.77-0.65-3.43-1.36-6.9-2.21-10.44 2.54-26.05-0.33-44.35-9.44-78.75-4.17-15.77-9.35-28.87-15.2-39.71 0.76-2.46 1.7-4.83 2.87-7.07 2.42-4.77 5.79-9 9.75-12.39zm-617.66 17.97c1.953-0.06 4.138 0.54 5.855 1.88 1.357 1.04 2.474 2.58 3.119 4.37 0.21 0.57 0.348 1.19 0.452 1.82-1.072 3.29-2.061 6.73-2.985 10.29-0.822 1.04-1.772 2.02-2.849 2.91-2.648 2.14-6.012 3.68-9.645 4.26-1.978 0.32-4.056 0.33-6.131 0.06 0.589-3.81 1.253-7.8 1.996-12.01 0.344 0.47 0.633 0.67 0.733 0.62 0.282-0.14-0.037-1.06-0.125-2.83-0.018-0.35-0.014-0.78 0.004-1.23 0.233-1.26 0.478-2.51 0.732-3.74 0.261-0.69 0.602-1.38 1.059-2.05 1.426-2.13 4.317-4.28 7.785-4.35zm640.66 0c3.47 0.07 6.36 2.22 7.78 4.35 0.46 0.67 0.8 1.36 1.06 2.05 0.26 1.23 0.5 2.48 0.73 3.74 0.02 0.45 0.02 0.88 0.01 1.23-0.09 1.77-0.41 2.69-0.13 2.83 0.1 0.05 0.39-0.15 0.73-0.62 0.75 4.21 1.41 8.2 2 12.01-2.07 0.28-4.15 0.26-6.13-0.06-3.63-0.58-7-2.12-9.64-4.26-1.08-0.89-2.03-1.87-2.85-2.91-0.92-3.55-1.92-7-2.99-10.29 0.11-0.63 0.24-1.25 0.45-1.82 0.65-1.79 1.77-3.33 3.12-4.37 1.72-1.34 3.91-1.94 5.86-1.88zm-36.39 4.27c5.35 10.32 10.12 22.68 14.03 37.44 8.39 31.73 11.45 49.42 9.87 72.3-1.78-6.63-3.92-13.42-6.51-20.32-3.5-9.38-9.04-21.77-12.29-31.52-3.75-11.23-6.27-23.32-6.87-35.79-0.3-7.42 0.03-15.04 1.77-22.11zm-567.89 0c1.737 7.07 2.074 14.69 1.773 22.11-0.598 12.47-3.121 24.56-6.869 35.79-3.247 9.75-8.789 22.14-12.297 31.52-2.582 6.9-4.729 13.69-6.506 20.32-1.582-22.88 1.476-40.57 9.873-72.3 3.904-14.75 8.678-27.12 14.026-37.44zm-32.471 24.97c-9.2 42.95-9.188 62.52 3.01 101.93 0.264 0.85 0.731 2.22 1.105 3.35-0.165 0.97-0.309 1.94-0.459 2.9-2.554-5.43-4.811-9.95-6.08-12.76-16.19-35.92-19.533-56.07-14.766-91.64 2.9 0.3 5.783 0.15 8.53-0.4 3.148-0.64 6.066-1.82 8.66-3.38zm632.83 0c2.6 1.56 5.52 2.74 8.66 3.38 2.75 0.55 5.63 0.7 8.53 0.4 4.77 35.57 1.43 55.72-14.76 91.64-1.27 2.81-3.53 7.33-6.08 12.76-0.15-0.96-0.3-1.92-0.46-2.9 0.37-1.13 0.84-2.5 1.11-3.35 12.19-39.41 12.2-58.97 3-101.93zm-10.61 129.85c3.98 17.87 3.35 33.53 2.13 44.3-1.49-0.96-2.71-2.19-3.69-3.66-0.72-1.73-1.28-3.68-1.7-5.82-1.12-5.77-1.19-12.81-0.72-19.95 0.05-0.76 0.13-1.52 0.19-2.28 0.03-0.19 0.07-0.39 0.1-0.58 0.45-1.83 0.96-3.67 1.52-5.51 0.66-2.17 1.39-4.35 2.17-6.5zm-611.61 0c0.774 2.16 1.507 4.33 2.17 6.5 0.562 1.84 1.066 3.68 1.518 5.51 0.034 0.19 0.072 0.39 0.105 0.58 0.062 0.76 0.14 1.52 0.19 2.28 0.469 7.14 0.392 14.18-0.729 19.95-0.416 2.14-0.976 4.1-1.693 5.82-0.986 1.47-2.201 2.71-3.69 3.66-1.217-10.77-1.855-26.43 2.129-44.3zm34.986 638.01c1.02 0.06 2.01 0.42 3.28 1.05 10.2 5.08 16.04 20.27 12.1 31.49-1.5 4.29-8.39 11.31-20.147 20.55-5.396 4.24-10.152 7.71-10.567 7.71-1.105 0-1.836-2.21-4.203-12.71-2.684-11.92-2.651-17.82 0.145-27.25 3.093-10.42 5.87-14.41 12.766-18.35 3.181-1.82 4.937-2.58 6.626-2.49zm541.63 0c1.69-0.09 3.45 0.67 6.63 2.49 6.9 3.94 9.67 7.93 12.77 18.35 2.79 9.43 2.82 15.33 0.14 27.25-2.37 10.5-3.1 12.71-4.2 12.71-0.42 0-5.17-3.47-10.57-7.71-11.76-9.24-18.65-16.26-20.15-20.55-3.93-11.22 1.9-26.41 12.11-31.49 1.26-0.63 2.25-0.99 3.27-1.05zm-562.63 74.64h0.002c2.011-0.04 3.631 1.89 6.235 5.79 2.5 3.7 7.628 9.1 11.394 11.9 3.769 2.9 6.599 5.8 6.289 6.6-0.31 0.7-2.75 2.2-5.425 3.2h-0.004c-5.79 2.3-17.023 2.2-22.643-0.1-4.911-2-9.596-8.3-9.596-12.9 0-2.2 1.756-5.1 5.178-8.4 4.161-4.03 6.56-6.05 8.57-6.09zm583.63 0c2.01 0.04 4.41 2.06 8.57 6.09 3.42 3.3 5.18 6.2 5.18 8.4 0 4.6-4.69 10.9-9.6 12.9-5.62 2.3-16.85 2.4-22.64 0.1-2.67-1-5.11-2.5-5.42-3.2-0.31-0.8 2.52-3.7 6.28-6.6 3.77-2.8 8.89-8.2 11.39-11.9 2.61-3.89 4.23-5.83 6.24-5.79z">
    <title
       id="title4704">Border 48 A4  --  by Arvin61r58</title>
  </path>
</svg>
