<?xml version="1.0" standalone="no"?>
<!DOCTYPE svg PUBLIC "-//W3C//DTD SVG 20010904//EN"
 "http://www.w3.org/TR/2001/REC-SVG-20010904/DTD/svg10.dtd">
<svg version="1.0" xmlns="http://www.w3.org/2000/svg"
 width="199.000000pt" height="600.000000pt" viewBox="0 0 199.000000 600.000000"
 preserveAspectRatio="xMidYMid meet">
<g transform="translate(0.000000,600.000000) scale(0.100000,-0.100000)"
fill="#000000" stroke="none">
<path d="M1955 5883 c-10 -27 -29 -64 -42 -85 -32 -48 -56 -141 -47 -182 4
-17 9 -37 10 -44 1 -7 22 -43 46 -80 40 -61 43 -71 45 -139 1 -40 -2 -75 -8
-78 -5 -4 -9 -1 -9 5 0 7 -8 24 -19 38 -10 15 -21 43 -25 62 -8 44 -40 91 -81
119 -29 20 -165 64 -173 56 -2 -2 1 -12 7 -23 6 -10 13 -34 16 -53 7 -43 51
-107 94 -136 18 -12 52 -25 76 -29 48 -7 106 -50 107 -80 2 -56 -13 -768 -17
-774 -2 -3 -5 -70 -6 -148 -2 -78 -6 -142 -9 -142 -4 0 -16 19 -26 43 -22 50
-249 282 -339 347 -33 24 -69 53 -80 64 -11 12 -82 68 -158 126 -150 114 -185
159 -172 220 4 16 10 30 14 30 5 0 17 19 27 42 30 67 23 135 -22 215 -35 63
-38 65 -52 47 -68 -89 -85 -232 -34 -288 36 -39 57 -106 35 -106 -18 1 -123
119 -123 137 0 41 -34 124 -65 160 -40 46 -74 64 -185 93 -47 13 -91 28 -98
33 -18 14 -25 2 -13 -20 6 -10 24 -55 41 -100 17 -44 41 -96 53 -115 23 -34
111 -100 131 -96 6 1 36 -2 68 -6 47 -7 64 -15 105 -52 26 -24 51 -44 56 -44
4 0 7 -4 7 -10 0 -18 -46 -11 -102 15 -81 38 -133 34 -223 -16 -41 -22 -75
-44 -75 -49 0 -12 118 -62 161 -67 52 -7 77 0 146 47 55 37 62 39 97 29 21 -6
61 -33 94 -63 31 -30 138 -126 238 -214 200 -177 277 -257 336 -347 41 -63
111 -205 105 -212 -3 -2 -20 6 -40 17 -19 12 -48 23 -64 26 -15 2 -64 13 -108
24 -87 21 -168 24 -605 21 -251 -2 -266 -1 -310 30 -20 14 -26 27 -28 63 -4
104 -87 189 -207 212 -35 6 -38 5 -30 -12 4 -10 16 -47 25 -80 10 -34 23 -71
30 -83 16 -32 83 -76 134 -91 25 -7 53 -21 62 -31 17 -18 15 -19 -32 -19 -71
0 -118 16 -188 64 -58 40 -67 43 -133 43 -65 1 -79 -3 -155 -41 -46 -23 -93
-45 -106 -48 -34 -9 -26 -25 23 -44 25 -9 67 -30 92 -47 26 -16 58 -31 72 -33
15 -3 33 -7 42 -9 31 -10 123 16 180 51 54 33 67 36 139 37 44 1 80 0 80 -1 0
-12 -49 -41 -67 -42 -82 -1 -167 -72 -197 -166 -11 -32 -24 -65 -30 -72 -17
-23 93 -3 148 27 56 29 101 90 111 151 8 48 42 80 96 90 23 4 130 2 238 -6
108 -7 264 -18 346 -24 186 -12 282 -31 362 -70 77 -38 126 -93 141 -158 12
-55 6 -2473 -7 -2842 -10 -250 -19 -285 -95 -362 -42 -42 -79 -58 -144 -64
-110 -9 -148 -23 -218 -80 -36 -30 -72 -55 -80 -55 -8 -1 -17 -2 -21 -3 -12
-2 -197 -84 -247 -109 -17 -9 -19 -6 -13 32 3 22 1 41 -4 41 -13 0 -22 -45
-14 -70 5 -16 -4 -11 -36 21 -23 23 -44 38 -47 31 -2 -6 12 -24 30 -41 18 -16
30 -33 26 -36 -4 -4 -14 0 -23 9 -18 17 -55 22 -55 7 0 -5 10 -11 22 -13 40
-6 29 -25 -29 -49 -32 -13 -62 -25 -68 -26 -50 -12 -171 -46 -174 -49 -21 -20
137 4 179 26 12 6 31 13 42 15 12 3 80 32 152 66 152 71 318 138 361 145 11 2
45 10 75 19 30 8 109 22 175 31 66 8 127 16 135 17 8 2 21 6 28 10 20 13 14
-17 -9 -47 -28 -35 -85 -71 -156 -98 -44 -16 -74 -38 -134 -99 -43 -44 -85
-79 -94 -79 -8 0 -15 -4 -15 -10 0 -13 26 -13 53 1 12 7 48 33 82 59 56 44 89
61 125 65 31 3 146 46 183 68 46 28 117 112 117 139 0 13 -14 2 -49 -40 -59
-71 -95 -94 -181 -118 -53 -14 -110 -36 -184 -72 -5 -3 -6 1 -2 7 10 15 89 54
153 75 88 29 144 85 162 162 7 32 19 68 27 79 8 10 14 26 14 33 0 22 -25 -2
-40 -37 -19 -48 -89 -78 -200 -86 -128 -9 -147 -12 -205 -29 -27 -9 -51 -14
-53 -12 -11 11 118 58 194 70 111 18 141 29 182 69 58 55 88 136 107 287 12
89 20 935 20 1965 0 1089 7 1002 -84 1098 -47 50 -69 66 -99 72 -9 2 -37 10
-62 18 -89 30 -208 47 -340 48 -157 1 -350 11 -350 19 0 10 463 10 543 -1 37
-5 87 -11 111 -14 55 -7 140 -36 186 -64 76 -46 80 -43 51 46 -26 80 -82 184
-125 233 -100 111 -221 229 -369 358 -92 80 -165 147 -163 150 3 2 52 -33 109
-79 58 -46 140 -111 182 -144 109 -84 277 -252 317 -316 18 -30 39 -63 46 -74
6 -11 20 -35 29 -52 9 -18 23 -33 30 -33 8 0 11 4 8 10 -3 5 0 211 7 457 6
247 15 437 19 423 6 -24 2 213 -5 273 -2 15 1 27 5 27 14 0 11 164 -3 178 -7
7 -8 12 -2 12 6 0 11 47 13 115 1 76 -1 115 -8 115 -10 0 -13 -26 -13 -157 0
-29 -5 -53 -9 -53 -5 0 -9 6 -9 13 0 8 -9 24 -20 37 -21 24 -40 80 -40 118 0
32 30 122 41 122 5 0 9 6 9 14 0 7 11 30 25 50 24 35 34 96 16 96 -4 0 -16
-21 -26 -47z m-197 -384 c66 -22 102 -55 128 -117 15 -38 3 -42 -19 -8 -17 26
-85 72 -93 63 -5 -5 41 -50 95 -95 14 -12 13 -13 -9 -7 -14 3 -33 8 -42 10
-26 6 -51 21 -70 42 -20 22 -70 133 -59 133 4 0 35 -9 69 -21z m-1020 -225
c86 -14 172 -69 194 -124 16 -40 36 -110 32 -110 -2 0 -36 29 -75 65 -39 36
-78 65 -87 65 -9 0 18 -31 61 -71 42 -39 77 -75 77 -80 0 -13 -58 1 -117 29
-60 28 -78 52 -122 165 -24 63 -27 77 -14 73 9 -4 32 -9 51 -12z m447 -125 c4
-26 -1 -48 -24 -94 l-31 -60 2 77 c4 119 -18 113 -24 -7 l-3 -50 -17 32 c-26
47 -23 116 8 180 l27 54 28 -49 c15 -27 30 -64 34 -83z m792 -141 c-3 -8 -6
-5 -6 6 -1 11 2 17 5 13 3 -3 4 -12 1 -19z m-1052 -109 c22 -6 46 -11 53 -11
6 -1 12 -5 12 -9 0 -4 -22 -8 -49 -7 -27 0 -59 -3 -70 -7 -31 -10 -26 -27 7
-21 15 3 52 8 82 11 l55 6 -25 -21 c-14 -11 -32 -25 -40 -29 -25 -15 -142 -7
-185 13 l-40 18 70 34 c78 38 75 37 130 23z m221 -41 l19 -23 -25 20 c-14 11
-27 21 -29 22 -2 2 0 3 6 3 5 0 18 -10 29 -22z m-576 -500 c66 -41 106 -90
118 -145 11 -46 -2 -60 -17 -20 -12 31 -77 103 -86 95 -4 -3 12 -32 34 -62 23
-31 37 -56 30 -56 -22 0 -65 32 -93 71 -26 37 -62 149 -47 149 4 0 31 -15 61
-32z m-87 -222 l58 -31 -106 -3 c-58 -1 -105 -7 -105 -11 0 -11 159 -26 195
-19 43 9 28 -6 -40 -40 -94 -46 -142 -44 -250 11 -46 23 -84 45 -85 48 0 4 28
19 63 34 137 62 173 64 270 11z m131 -191 c-33 -32 -50 -55 -41 -55 9 0 36 21
61 47 25 26 48 44 52 41 10 -11 -34 -97 -63 -123 -24 -21 -101 -55 -125 -55
-11 0 0 46 24 98 14 30 35 53 67 73 76 48 87 36 25 -26z"/>
<path d="M1604 5460 c0 -13 4 -16 10 -10 7 7 7 13 0 20 -6 6 -10 3 -10 -10z"/>
<path d="M1185 5341 c-3 -5 -2 -12 3 -15 5 -3 9 1 9 9 0 17 -3 19 -12 6z"/>
<path d="M1160 5326 c0 -2 8 -10 18 -17 15 -13 16 -12 3 4 -13 16 -21 21 -21
13z"/>
<path d="M1745 4451 c-3 -5 -2 -12 3 -15 5 -3 9 1 9 9 0 17 -3 19 -12 6z"/>
<path d="M1825 4371 c-3 -5 -2 -12 3 -15 5 -3 9 1 9 9 0 17 -3 19 -12 6z"/>
<path d="M1766 3872 c-3 -5 1 -9 9 -9 8 0 12 4 9 9 -3 4 -7 8 -9 8 -2 0 -6 -4
-9 -8z"/>
<path d="M1445 551 c-3 -5 -2 -12 3 -15 5 -3 9 1 9 9 0 17 -3 19 -12 6z"/>
<path d="M1495 329 c-4 -6 -5 -13 -2 -16 7 -7 27 6 27 18 0 12 -17 12 -25 -2z"/>
<path d="M1420 310 c0 -5 5 -10 10 -10 6 0 10 5 10 10 0 6 -4 10 -10 10 -5 0
-10 -4 -10 -10z"/>
<path d="M1360 280 c0 -5 5 -10 10 -10 6 0 10 5 10 10 0 6 -4 10 -10 10 -5 0
-10 -4 -10 -10z"/>
<path d="M1400 280 c0 -5 7 -10 16 -10 8 0 12 5 9 10 -3 6 -10 10 -16 10 -5 0
-9 -4 -9 -10z"/>
<path d="M1460 275 c0 -8 7 -15 15 -15 8 0 15 7 15 15 0 8 -7 15 -15 15 -8 0
-15 -7 -15 -15z"/>
<path d="M1902 239 c2 -7 10 -15 17 -17 8 -3 12 1 9 9 -2 7 -10 15 -17 17 -8
3 -12 -1 -9 -9z"/>
<path d="M1852 219 c2 -7 10 -15 17 -17 8 -3 12 1 9 9 -2 7 -10 15 -17 17 -8
3 -12 -1 -9 -9z"/>
<path d="M1935 210 c-3 -5 1 -10 9 -10 8 0 18 5 21 10 3 6 -1 10 -9 10 -8 0
-18 -4 -21 -10z"/>
<path d="M1905 190 c-7 -12 2 -30 16 -30 12 0 12 27 0 35 -5 3 -12 1 -16 -5z"/>
<path d="M1966 172 c-3 -5 1 -9 9 -9 8 0 12 4 9 9 -3 4 -7 8 -9 8 -2 0 -6 -4
-9 -8z"/>
<path d="M590 119 c0 -18 2 -19 15 -9 15 12 12 30 -6 30 -5 0 -9 -10 -9 -21z"/>
<path d="M512 119 c2 -6 8 -10 13 -10 5 0 11 4 13 10 2 6 -4 11 -13 11 -9 0
-15 -5 -13 -11z"/>
<path d="M1370 108 c0 -17 2 -18 15 -8 8 7 15 14 15 15 0 2 -7 5 -15 9 -10 4
-15 -1 -15 -16z"/>
<path d="M1290 90 c0 -5 5 -10 10 -10 6 0 10 5 10 10 0 6 -4 10 -10 10 -5 0
-10 -4 -10 -10z"/>
</g>
</svg>
