<?xml version="1.0" standalone="no"?>
<!DOCTYPE svg PUBLIC "-//W3C//DTD SVG 20010904//EN"
 "http://www.w3.org/TR/2001/REC-SVG-20010904/DTD/svg10.dtd">
<svg version="1.0" xmlns="http://www.w3.org/2000/svg"
 width="62.000000pt" height="60.000000pt" viewBox="0 0 62.000000 60.000000"
 preserveAspectRatio="xMidYMid meet">
<g transform="translate(0.000000,60.000000) scale(0.100000,-0.100000)"
fill="#5c7a56" stroke="none">
<path d="M183 435 c-44 -19 -69 -59 -57 -93 10 -29 76 -72 112 -72 27 0 28
-11 2 -35 -11 -10 -27 -41 -35 -68 -17 -57 -20 -167 -5 -167 6 0 10 26 10 58
0 75 17 98 85 117 64 19 84 38 64 61 -7 9 -22 20 -34 24 -18 7 -17 9 10 15
101 23 136 37 151 60 15 23 15 27 0 50 -15 23 -22 25 -89 24 -60 -1 -67 -2
-41 -10 17 -5 37 -16 44 -25 16 -19 -2 -38 -72 -78 l-46 -27 -27 24 c-30 26
-36 66 -14 94 29 34 74 43 229 43 93 0 150 4 150 10 0 16 -398 12 -437 -5z
m54 -12 c-52 -16 -83 -50 -74 -83 3 -11 1 -18 -4 -14 -16 9 -10 60 9 77 23 21
61 36 92 35 17 0 10 -5 -23 -15z m-10 -31 c-20 -22 -22 -73 -5 -90 15 -15 3
-16 -23 -2 -26 15 -25 64 3 90 27 25 47 27 25 2z m230 -17 c0 -8 -4 -12 -9 -9
-5 3 -6 10 -3 15 9 13 12 11 12 -6z m8 -27 c5 4 5 2 2 -5 -6 -9 -18 -10 -45
-4 -2 1 0 6 3 11 5 8 11 8 19 1 7 -6 17 -7 21 -3z m-155 -113 c7 -9 11 -18 8
-20 -11 -11 -98 -52 -98 -46 0 10 61 81 70 81 4 0 13 -7 20 -15z"/>
</g>
</svg>
