<?xml version="1.0" encoding="utf-8"?>
<!-- Generator: Adobe Illustrator 13.0.0, SVG Export Plug-In . SVG Version: 6.00 Build 14948)  -->
<!DOCTYPE svg PUBLIC "-//W3C//DTD SVG 1.1//EN" "http://www.w3.org/Graphics/SVG/1.1/DTD/svg11.dtd">
<svg version="1.1" id="Layer_1" xmlns="http://www.w3.org/2000/svg" xmlns:xlink="http://www.w3.org/1999/xlink" x="0px" y="0px"
	 width="654px" height="311px" viewBox="0 0 654 311" enable-background="new 0 0 654 311" xml:space="preserve">
<g>
	<g>
		<path fill-rule="evenodd" clip-rule="evenodd" d="M134,84C131.804,87.055,127.595,82.846,134,84L134,84z"/>
		<path fill-rule="evenodd" clip-rule="evenodd" d="M220,147c4.35-2.317,12.988-0.346,19-1C234.65,148.317,226.012,146.346,220,147z
			"/>
		<path fill-rule="evenodd" clip-rule="evenodd" d="M212,148c0.431-2.236,4.928-0.405,7-1C218.569,149.236,214.072,147.405,212,148z
			"/>
		<path fill-rule="evenodd" clip-rule="evenodd" d="M167,150c-2.823,3.08-6.902-1.041-11,0C158.291,146.134,163.264,149.576,167,150
			z"/>
		<path fill-rule="evenodd" clip-rule="evenodd" d="M323,167c1.163-0.163,1.779,0.221,2,1c0.418,10.915-0.987,23.653,1,33
			C321.842,192.825,325.13,177.204,323,167z"/>
		<path fill-rule="evenodd" clip-rule="evenodd" d="M197,178c-0.437,1.23-1.28,2.054-3,2C194.437,178.77,195.28,177.946,197,178z"/>
		<path fill-rule="evenodd" clip-rule="evenodd" d="M321,220c-10.427-12.021,12.498-18.323,11-6
			C331.472,218.347,328.431,220.64,321,220z M321,216c2.162,0.838,3.411,2.589,7,2c2.019-2.313,1.021-7.671-1-9
			C322.572,208.905,320.13,210.797,321,216z"/>
		<path fill-rule="evenodd" clip-rule="evenodd" d="M301,249c-3.397,4.603-7.605,8.395-10,14
			C288.893,256.873,296.223,251.57,301,249z"/>
		<path fill-rule="evenodd" clip-rule="evenodd" d="M323,274c-3.802,2.865-6.153,7.18-10,10c-11.535,0.415-26.108,0-27-13
			c-4.676-2.657-8.622-6.045-15-7c-3.087-8.247-12.838-9.829-10-24c1.161-2.506,2.839-4.494,4-7c-5.63-5.325-13.662-9.231-14-21
			c-0.205-7.145,4.183-13.412,6-20c-12.855,6.361-29.439,12.846-46,9c-7.008-1.628-18.285-2.285-27-3
			c-7.375-0.605-14.513,0.767-20,4c-2.146-2.932,5.371-4.604,7-5c8.117-1.972,21.101-0.538,32,1c4.497,0.635,8.575,2.86,13,3
			c20.021,0.633,35.111-7.296,50-17c-0.688-4.021,0.958-5.708,1-9c5.977-3.69,8.61-10.724,19-10c15.763-15.59,1.593-43.856,7-66
			c1.395-5.714,6.357-11.111,10-18c4.865-9.199,5.679-16.958,11-22c3.639,10.627,0.324,25.771,3,39c7.039-4.821,1.384-17.328,1-26
			c-0.09-2.04,1.122-2.754,1-4c-0.68-6.947-4.837-14.22,3-17c3.103,12.748,5.937,22.297,13,32c1.876,2.577,5.664,3.879,7,7
			c4.993,11.663-0.793,29.033,1,45c1.714,15.269,9.728,28.896,19,38c6.107-0.773,9.356,1.31,15,1c1.813,3.854,5.01,6.323,6,11
			c27.047,12.951,70.527-3.556,99,7c-4.479-9.188-8.686-18.647-16-25c1.51-6.843-3.792-6.875-3-13c-9.431-10.236-13.243-26.09-21-38
			c-1.16-0.839-2.681-1.319-5-1c-1.666-9.645-15.654-19.537-25-23c-6.807-2.522-16.103-3.574-24-3c-10.466,0.761-21.608,5.741-30,5
			c-20.024-1.768-28.456-25.896-34-44c17.938,3.815,40.456,12.297,62,6c-26.789-2.544-61.379,2.712-63-25
			c-10.415-1.415-12.066,5.934-13,14c-5.31,0.356-5.343,5.991-9,8c-18.274,2.74-38.849-1.747-55-3c19.628-2.381,63.277,14.385,63-17
			c7.633-0.367,10.318-5.682,14-10c5.174,4.117,0.712,10.606,5,18c5.54,9.552,25.801,13.302,41,13c13.613-0.271,29.705-2.096,46-4
			c14.22-1.661,28.817-8.221,44-9c10.593-0.543,20.997,0.521,30,0c22.439-1.3,50.716-4.708,75-4c4.837,0.141,9.01-0.868,15,1
			c0.705,0.22,1.97,2.572,3,3c7.504,3.115,14.153,2.726,17,12c-6.193-0.563-19.099-7.844-23-1c-3.21-1.772-4.369-2.617-7-3
			c-6.344,1.786-6.406,4.688-15,3c-0.932,4.735-7.828,3.505-12,5c-4.024,1.497,0.895,4.173-1,5c-6.733-1.066-10.088,1.245-11,6
			c-6.957-0.958-10.402,1.597-12,6c-3.486-0.502-9.155-2.434-9,3c-8.069-3.903-12.638,3.195-19,1c0.032,3.634,2.94,4.393,7,4
			c-0.819,5.53,3.28,8.461,9,10c-0.839,1.161-1.319,2.681-1,5c4.807,2.193,5.789,8.211,8,13c1.011,1.656,4.247,1.086,6,2
			c-0.437,1.23-1.279,2.054-3,2c2.274,6.726,9.539,8.461,11,16c-5.858,0.825-17.404,1.239-18,4c-2.054,2.097-7.82-1.683-11,1
			c-0.745,3.078,2.745,1.922,2,5c-4.116-0.217-2.79-5.877-9-4c-2.169-0.168-0.453,3.547-1,5c-3.336,0.003-3.414-3.253-7-3
			c-1.357,0.31-0.83,2.504-1,4c-3.235,1.236-0.765-3.236-4-2c-3.206-0.873-3.128,1.539-4,3c-5.905-5.407-7.565,1.545-13-2
			c-0.449,5.45-0.275,10.275,5,10c-4.368,9.71,8.865,7.354,5,17c0.91,1.757,3.504,1.829,5,3c1.956,11.377,11.596,15.071,13,27
			c-5.04-2.627-9.274-6.059-17-6c-3.363,1.614,3.144,3.166,0,5c-3.353-1.314-4.154-5.179-7-7c-2.791,0.875-6.733,0.6-7,4
			c-2.086-2.31-11.957-5.732-13,0c-3.257-1.949-10.833-5.592-13,0c-4.666-1.522-5.845-2.53-10-2c-2.958,0.378-4.828,3.117-7,3
			c-3.238-0.175-3.315-3.986-7-3c-3.008-1.008-1.772,2.228-2,4c-2.827-1.781-10.46-8.496-14-3c-2.65-1.35-2.729-5.271-7-5
			c-5.435,3.775,0.652,10.633,4,12c7.434,11.7,2.996,28.627-9,32c5.891,7.885,0.472,19.734-3,27c-4.462,2.204-10.105,3.228-15,5
			c-3.762,4.905-6.85,10.483-12,14c-5.28-1.428-11.079,2.667-16,2C328.859,279.303,327.244,276.71,323,274z M354,168
			c-3.06-5.274-8.379-8.287-13-12c-17.776,5.672-41.802-11.808-47,10c8.223,7.115,14.841,21.153,17,31
			c-3.797-4.553-5.846-15.398-10-22c-7.232-11.495-23.66-9.793-32,1c-2.33,16.068-25.258,28.746-13,47
			c5.286,7.871,18.804,8.556,30,6c11.16-2.547,19.724-14.443,28-11c-14.979,6.354-27.283,15.384-48,16
			c-8.98,16.886,7.168,29.479,21,33c0.898,4.102,3.059,6.941,5,10c11.698,6.059,27.504,2.414,30-7c3.213-12.119-5.865-31.261,2-38
			c-1.319,14.043,1.139,28.335,2,42c8.934,3.181,20.104,2.854,27-2c4.396-3.094,4.473-9.209,9-11c12.423-0.91,18.438-8.229,18-22
			c-2.762-0.571-3.118-3.548-4-6c-4.563-0.563-6.228,1.772-11,1c-7-4.674-23-5.657-26-11c10.666,1.521,17.363,8.087,27,9
			c25.835,2.449,31.429-22.794,15-37c0.562-9.229-1.516-15.818-6-20c-15.577-3.672-27.533,9.93-34,18c-2.771,3.457-3.382,9.292-8,10
			C337.836,189.169,354.018,186.685,354,168z M456,46c-8.081-1.255-18.359,3.773-29,5c-8.804,1.015-17.959,1.174-26,2
			c-4.917,0.505-10.76-1.004-14,3c10.319,0.316,18.773-2.393,27-3c4.609-0.34,11.521-0.783,16,0c9.902,1.731,13.442,8.801,20,13
			c11.432,7.32,26.551,11.176,46,9c34.855-3.899,50.224-35.02,93-29c-10.817-5.516-25.926-6.741-43-6c-2.807-0.428,2.507,3.728-1,4
			c-5.446-7.039-16.068-1.151-25-3c-3.297,3.847,5.449,7,3,10c-4.825-10.829-23-9.992-36-6c4.005,5.006,12.658,10.661,13,16
			c-5.938-4.271-11.024-15.185-21-17c-5.856-1.065-15.013,0.1-17,3c3.972,3.695,9.773,5.56,11,12
			C467.657,54.702,464.041,47.249,456,46z M332,54c-1.278-0.055-1.385-1.282-3-1C327.445,55.461,332.396,55.94,332,54z M399,74
			c5.598-5.735,9.233-13.434,16-18c-25.746,2.745-51.194,7.228-73,2C356.635,67.699,380.866,67.8,399,74z M358,91
			c6.139,0.622,13.864-3.701,17-4c4.765-0.454,6.373,0.934,9-2c3.412,1.355,7.936,3.141,12,1c0.417-7.05-8.339-8.872-13-10
			c-18.477-4.472-41.494-5.809-52-19c-1,0-2,0-3,0C333.332,70.195,341.694,89.349,358,91z M361,68c-9.948-2.386-17.104-7.563-26-11
			C339.851,63.823,352.52,68.139,361,68z M418,80c7.514-3.486,6.648-15.352,11-22c2.51,4.181-5.063,11.344-2,16
			c4.222-3.445,6.161-9.172,7-16C420.703,53.472,420.217,70.142,418,80z M413,79c6.523-2.477,4.866-13.133,9-18
			c0.054-1.72-0.77-2.563-2-3C415.979,63.312,413.982,70.649,413,79z M433,69c5.612,0.945,5.758-3.576,7-7
			c-1.427-0.239-1.687-1.646-3-2C434.82,62.154,434.487,66.154,433,69z M408,73c0-1.333,0-2.667,0-4c-7.15,2.993-5.021,11.603-8,17
			c3.188,3.684,8.355,1.465,12,3c0.838-2.162,2.589-3.411,2-7c-4.31-1.31-1.239,4.761-5,4c-0.392-3.049,2.629-5.091-1-6
			c-2.968,2.576,0.785,5.658-4,6c1.774-3.893,0.262-11.071,5-12c-1.434,1.464-0.767,3.169,2,3c1.458-5.542,3.109-10.89,5-16
			C410.248,61.915,411.536,69.87,408,73z M440,68c2.615,0.282,4.302-0.365,4-3C441.497,64.831,440.869,66.536,440,68z M441,88
			c3.894-4.773,5.223-12.11,7-19c-0.221-0.779-0.837-1.163-2-1C444.15,73.746,435.95,83.935,441,88z M394,77
			c2.632,0.492,3.368,5.514,6,3c-1.072-4.728-9.494-6.771-15-8c-7.054-1.574-15.789-1.724-21-2
			C373.351,72.983,384.588,74.079,394,77z M448,82c2.341-2.993,4.847-5.82,5-11c-1.278-0.055-1.385-1.282-3-1
			C449.281,73.319,445.179,78.461,448,82z M433,86c6.465-1.202,6.946-8.387,8-15C435.766,73.433,434.213,79.546,433,86z M430,84
			c1.771-3.229,2.999-7.001,4-11C429.868,73.314,425.582,81.481,430,84z M463,96c7.792,0.776,6.14-13.173,11-12
			c-0.533,3.467-2.676,5.325-3,9c5.03-1.637,5.97-7.363,7-13c-4.704,2.848-3.017,0.692-5-3C468.784,82.451,465.535,88.868,463,96z
			 M468,79c-5.559-0.201-5.104,10.863-9,9c1.089-4.578,4.889-6.445,5-12c-2.188-0.224-5.383-4.511-7-2
			c8.156,4.785-4.558,10.283-3,18c3.182-0.077,2.998,1.153,6,3C463.561,90.561,466.766,85.766,468,79z M308,86
			c2.205-1.462-0.587-7.92,3-8c-0.296,6.038-2.136,10.531-2,17c1.333,0,2.667,0,4,0c1.53-4.822,1.761-16.214,0-21
			c-1.447,3.728-1.333,2.529-3,0C309.356,77.394,305.958,83.241,308,86z M329,91c5.798,0.202,7.624,4.376,9,9
			c-5.841,1.493-3.422,11.245-6,16c-2.968-1.446-6.417-6.343-10-4c4.154,7.179,8.048,14.619,17,17c3.688-3.864,1.588-10.8-1-14
			c4.353-5.834,4.511-16.372,2-23c-1.024-2.703-5.059-5.226-7-8c-2.819-4.029-2.893-7.373-6-9C325.501,78.878,329.604,84.787,329,91
			z M453,79c2.279,0.279,3.759-0.241,4-2c-1.428-0.239-1.687-1.646-3-2C453.686,76.352,452.576,76.91,453,79z M423,82
			c2.813-0.187,4.261-1.74,4-5C424.188,77.187,422.739,78.74,423,82z M477,91c6.402-0.264,5.55-7.783,8-12
			C479.486,80.153,479.551,86.884,477,91z M324,92c2.445-2.836-1.126-8.164-2-11C322.052,81.926,320.345,91.524,324,92z M451,91
			c1.953-2.381,2.521-6.146,4-9C450.242,81.189,445.138,90.475,451,91z M483,92c3.561,0.155,7.256-8.852,3-10
			C484.683,85.016,482.77,87.437,483,92z M297,96c3.336,0.003,3.414-3.253,7-3c-1.704-4.023,3.908-9.181-1-10
			C302.554,88.887,297.93,90.597,297,96z M415,91c2.662-0.933,3.633-6.867,3-8C414.277,82.944,415.116,87.449,415,91z M425,97
			c1.65-2.763,4.914-7.846,3-11C423.115,87.294,421.494,94.916,425,97z M424,85c-4.519-1.428-5.42,6.498-2,7
			C423.108,90.108,423.275,87.276,424,85z M483,106c5.569-4.431,7.771-12.229,10-20c-1.278-0.055-1.385-1.282-3-1
			C488.224,92.02,482.027,99.518,483,106z M444,89c1,0,2,0,3,0c0-1,0-2,0-3c-0.667,0-1.333,0-2,0
			C444.945,87.278,443.718,87.385,444,89z M429,97c4.177-0.156,3.754-4.913,5-8c-1.278-0.055-1.385-1.282-3-1
			C429.168,89.764,427.736,95.236,429,97z M488,108c7.604-0.867,8.476-13.336,9-18c-0.221-0.779-0.837-1.163-2-1
			C492.147,94.814,488.549,99.882,488,108z M438,95c3.073,1.53,3.073-6.53,0-5C438,91.667,438,93.333,438,95z M441,101
			c1.315-2.685,2.685-5.315,4-8c-1.278-0.055-1.385-1.282-3-1C442.912,95.646,437.657,98.234,441,101z M454,95
			c-7.156,3.177-7.701,12.966-11,20c3.547,0.595,2.627-1.153,6,2c1.712-4.835,7.27-10.438,6-15c-4.479,1.854-4.71,7.957-8,11
			C448.511,106.178,453.111,102.444,454,95z M449,93c-5.991,2.342-7.372,9.295-8,17C446.778,107.445,447.451,99.784,449,93z
			 M321,104c3.585-4.91,7.362-6.688,14-4c0.045-3.044-2.111-3.889-3-6C324.061,92.214,316.938,100.261,321,104z M473,101
			c4.675,0.675,3.717-4.283,5-7C473.524,93.525,472.996,96.996,473,101z M478,103c4.041-0.625,4.002-5.332,5-9
			C479.233,94.647,476.933,100.692,478,103z M434,104c0.261-1.406,2.193-1.14,3-2c-0.865-2.468,0.256-6.922-3-7
			C432.585,98.104,429.193,102.732,434,104z M494,111c3.729,1.063,1.583-3.75,5-3c-1.965,9.702-7.633,15.701-9,26
			c5.229-3.219,6.717-10.547,9-16c2.447-5.845,5.961-11.917,6-19c-4.57,0.097-3.464,5.87-6,8c-0.099-4.766,1.863-7.47,3-11
			c-1.278-0.055-1.385-1.282-3-1C496.894,99.894,494.253,104.253,494,111z M298,101c1.065,2.375,4.606-2.144,6,1
			c-1.49,1.177-2.823,2.51-4,4c0.357,2.976,1.593,5.074,3,7c4.168-0.498,5.162-4.171,6-8c-0.086-2.58-4.281-1.052-3-5
			c2.409-0.409,2.174,1.826,5,1C310.275,96.627,297.623,94.864,298,101z M463,114c1.965-4.035,4.83-7.169,5-13
			C463.946,102.22,458.894,111.043,463,114z M464,99c-5.387-0.72-5.259,4.074-5,9C462.637,106.97,463.472,103.139,464,99z M303,115
			c-4.938-1.117-3.438-9.185-6-10c-3.598,0.678-1.949,7.231-2,11c-0.068,5.014-0.557,10.394,1,13c5.94-4.393,10.844-9.822,18-13
			c0.286,1.743-3.193,5.367,1,5c2.166-4.173,3.659-17.316-1-21C311.929,106.596,309.59,112.923,303,115z M324,106
			c1.967,2.699,3.277,6.056,8,6c0-3,0-6,0-9C329.123,100.247,324.637,101.464,324,106z M458,109c-7.165-0.301-5.535,12.862-11,11
			c-0.963,4.296,4.912,1.754,5,5c-2.697,1.449,0.786,4.603,2,7c1.479-2.188,1.95-5.383,4-7c-0.449,4.595-1.913,8.871,2,11
			c4.75-10.583,8.997-21.67,13-33c-8.571,2.104-7.093,19.563-14,20c0.49-3.225,3.653-5.91,0-8c-2.142,2.191-2.749,5.918-5,8
			C454.571,117.571,458.814,115.814,458,109z M475,109c3.41,0.753,3.9-3.82,1-4C475.686,106.352,474.576,106.91,475,109z M496,132
			c4.827-0.61,6.425-7.315,8-11c1.966-4.599,4.172-10.057,5-15c-1.278-0.055-1.385-1.282-3-1
			C503.387,114.72,498.199,121.866,496,132z M468,138c6.01-0.101,7.803-8.76,10-14c2.065-4.924,7.103-12.888,3-17
			C475.502,116.168,471.521,126.855,468,138z M318,154c3.302,1.451,11.419,3.83,14,0c-1.464-3.246-1.915-2.835-6-2
			c-0.171-2.829,0.86-6.86-2-7c-2.155,0.845,0.375,6.375-2,7c1.077-9.301-1.512-18.578-2-25c-0.565-7.44,1.64-14.414-1-19
			C316.394,126.549,320.762,137.509,318,154z M475,137c8.219-0.221,7.516-10.261,10-16c1.668-3.853,4.981-6.051,5-10
			c-1.161-0.839-2.681-1.319-5-1C482.828,120.162,477.536,127.203,475,137z M463,137c8.055-3.945,8.201-15.799,12-24
			c-1.278-0.055-1.385-1.282-3-1C468.629,119.963,464.052,126.718,463,137z M503,130c5.407-2.741,8.658-12.474,9-17
			c-0.221-0.779-0.837-1.163-2-1C507.105,117.439,504.189,122.856,503,130z M482,136c8.689-2.398,10.869-16.346,12-23c-1,0-2,0-3,0
			C489.162,121.828,483.76,127.094,482,136z M511,129c1.504-2.163,1.113-6.22,4-7c0,2,0,4,0,6c2.729,0.729,2.013-1.987,4-2
			c-0.226-4.108-2.118-6.549-4-9C512.822,119.538,506.152,125.813,511,129z M324,125c-0.015-2.651,0.555-5.888-2-6
			C321.191,119.793,320.949,125.127,324,125z M316,126c0.054-1.72-0.77-2.563-2-3C312.569,124.461,312.53,126.873,316,126z M311,128
			c-0.884-0.768-2.855,0.614-3,1C306.568,132.819,312.98,129.722,311,128z M314,135c4.942,0.506,3.087-6.978,0-7
			C311.745,130.162,314.828,131.411,314,135z M334,136c0-0.667,0-1.333,0-2C332.155,130.678,329.124,137.001,334,136z M339,135
			c0.667,0,1.333,0,2,0c0-0.667,0-1.333,0-2c-0.667,0-1.333,0-2,0C339,133.667,339,134.333,339,135z M325,142
			c-0.609-2.391,1.255-7.255-1-8C322.656,135.462,321.956,141.92,325,142z M327,136c0.667,0,1.333,0,2,0c0-0.667,0-1.333,0-2
			c-0.667,0-1.333,0-2,0C327,134.667,327,135.333,327,136z M296,140c1,0,2,0,3,0c0-1,0-2,0-3c-0.667,0-1.333,0-2,0
			C296.945,138.278,295.718,138.385,296,140z M301,139c0.667,0,1.333,0,2,0c0-0.667,0-1.333,0-2c-0.667,0-1.333,0-2,0
			C301,137.667,301,138.333,301,139z M309,139c0.667,0,1.333,0,2,0c0-0.667,0-1.333,0-2c-0.667,0-1.333,0-2,0
			C309,137.667,309,138.333,309,139z M316,145c1.821-1.244,2.001-9.268-2-8C315.606,140.938,312.033,143.839,316,145z M328,139
			C326.947,144.804,332.334,139.417,328,139L328,139z M332,142c1,0,2,0,3,0c0-1,0-2,0-3c-1,0-2,0-3,0C332,140,332,141,332,142z
			 M337,142c0.667,0,1.333,0,2,0c-0.003-1.003,0.81-1.19,1-2c-1.278-0.055-1.385-1.282-3-1C337,140,337,141,337,142z M305,145
			c2.917,1.47,2.917-4.47,0-3C305,143,305,144,305,145z M312,143c-0.339-0.809-2.655-1.207-3,0
			C308.338,145.317,312.907,145.163,312,143z M338,148c0.667,0,1.333,0,2,0c0-1.333,0-2.667,0-4c-0.667,0-1.333,0-2,0
			C338,145.333,338,146.667,338,148z M342,144C341.196,150.054,346.584,144.667,342,144L342,144z M327,146c0,0.667,0,1.333,0,2
			c0.61,0.057,1.184,0.149,1,1c0.667,0,1.333,0,2,0c0.057-0.61,0.149-1.184,1-1c0-0.667,0-1.333,0-2c-0.61-0.057-1.184-0.149-1-1
			c-0.667,0-1.333,0-2,0C327.943,145.61,327.851,146.184,327,146z M335,149c-0.228-1.772,1.008-5.008-2-4
			C332.721,147.279,333.241,148.759,335,149z M317,152c-0.015-2.651,0.555-5.888-2-6C313.614,147.37,314.045,152.03,317,152z
			 M312,150c0.054-1.72-0.77-2.563-2-3C308.569,148.461,308.53,150.873,312,150z M303,148c-0.884-0.768-2.855,0.614-3,1
			C298.586,152.77,304.976,149.718,303,148z M305,150c0.667,0,1.333,0,2,0c0-0.667,0-1.333,0-2c-0.667,0-1.333,0-2,0
			C305,148.667,305,149.333,305,150z M295,152c3.206,0.873,3.127-1.539,4-3C296.497,148.831,295.87,150.536,295,152z M342,152
			c-2.421-1.909-4.857,1.09-8-1C332.17,155.921,342.283,154.635,342,152z M347,154c-0.339-0.809-2.655-1.207-3,0
			C343.338,156.317,347.907,156.163,347,154z M295,157c0.667,0,1.333,0,2,0c0-0.667,0-1.333,0-2c-0.667,0-1.333,0-2,0
			C295,155.667,295,156.333,295,157z M292,164c0.521-1.479,1.479-2.521,2-4C291.783,159.26,289.88,163.686,292,164z M356,174
			c1.003-0.003,1.19,0.81,2,1c-0.003-1.003,0.81-1.19,1-2c-1.003,0.003-1.19-0.81-2-1C357.003,173.003,356.19,173.19,356,174z"/>
		<path fill-rule="evenodd" clip-rule="evenodd" d="M103,43c3.299-0.194-0.493,4.645,5,4c4.788-1.492-1.478-3.158,1-5
			c6.137,1.768,11.138-2.573,20-1c-3.871,4.246-10.357,8.532-17,7c-2.085,3.872-7.107,4.951-10,8c-2.395,2.523-2.505,6.461-6,8
			c-0.221-8.221,6.004-9.996,9-15c-14.798,0.539-34.034,5.297-49,9c29.454,1.879,46.607,16.059,70,24
			c-23.574-1.762-39.509-25.188-74-21c-3.769,0.458-7.493,3.382-13,3c8.92-9.549,27.066-8.439,42-13
			C88.373,48.748,95.249,44.36,103,43z"/>
		<path fill-rule="evenodd" clip-rule="evenodd" d="M162,48c-0.223-1.528-16.628-2.545-20-2c-9.983,1.613-16.079,10.998-21,17
			c-0.422-5.771,7.963-11.359,13-15c-0.409-3.417-2.701-1.271-1-5c40.833,0.795,75.191-4.326,112,5c-18.891-2.035-52.786-5.212-75-3
			c-8.879,0.884-15.244,11.088-20,17C149.451,56.768,157.775,51.788,162,48z"/>
		<path fill-rule="evenodd" clip-rule="evenodd" d="M162,198c8.256-14.077,13.471-31.195,21-46c-3.842-2.796-9.204,1.429-15,0
			c-0.319-2.319,0.161-3.839,1-5c-6.07-5.597-7.358-15.975-13-22c-1.615-0.282-1.722,0.945-3,1c-2.501,7.849,6.625,12.698,7,21
			c-4.847-4.82-6.424-12.909-11-18c-3.383,4.232,4.456,13.171,6,19c-12.946-1.206-31.107-7.651-45-6c2.32-6.66,9.386-1.771,15-1
			c2.63-3.13-0.735-6.669-1-10c-4.759-0.093-4.188,5.145-8,6c-0.887-6.313,6.571-7.158,10-11c1.12-1.254,4.425-6.721,6-9
			c1.504-2.176,2.06-4.217,4-7c4.517-6.48,9.631-15.346,15-22c-4.603-1.397-10.471-1.529-16-2c16.294,0.93,34.775-3.273,47-10
			c6.91-3.802,11.654-9.856,18-14c2.141-1.398,5.496-1.407,8-3c4.303-2.738,11.288-8.638,19-9c9.516-0.447,23.218,6.635,37,8
			c14.458,1.432,26.984,2.523,39-4c3.5,0.124-0.789,8.092-5,7c-13.346,12.32-37.332,14.001-58,19c0.362,6.139,5.83,2.581,9,1
			c12.597-0.675,23.443-4.055,34-8c10.408-3.89,17.834-11.021,27-16c-1.89,12.771-14.125,29.44-25,37
			c-14.854,10.325-26.489-1.469-47,1c-17.175,2.067-32.013,17.611-40,31c-4.327,7.253-4.515,14.199-9,23
			c-1.719,3.373-5.281,5.774-7,9C175.438,170.319,172.913,189.603,162,198z M271,97c18.813-0.839,28.302-21.363,36-35
			c-6.627,3.094-11.855,7.926-19,11c-13.255,5.702-28.365,8.62-44,12c1.143,3.705,0.098,5.797,1,8
			C255.482,93.109,262.677,97.371,271,97z M170,149c5.228,2,13.746,1.048,17-2c0.224-0.776,0.027-1.973,1-2
			c-1.146-7.854-4.26-13.74-9-18c-1.092-4.908-2.782-9.218-7-11c-3.444,7.36,4.775,11.042,5,18c-5.816-3.184-3.507-14.492-12-15
			c-1.129,10.215,11.962,19.972,11,30c-2.333-4.722-4.548-9.919-7-15c-2.267-4.697-4.185-11.829-10-13
			C158.637,130.625,166.98,139.495,170,149z M183,122c-2.44,6.357,2.283,13.534,7,16C191.572,132.512,187.408,124.775,183,122z
			 M193,131c-0.489-3.156,1.802-3.531,1-7c1.278,0.055,1.385,1.282,3,1c2.1-3.765-3.85-10.76-2-14c2.325,2.009,1.019,7.648,5,8
			c4.211-4.937-1.217-14.701-7-16c-0.723,3.056,1.022,3.644,1,6c-3.056-1.144-3.134-5.259-7-3c-0.948,7.402,9.472,12.565,5,17
			c-1.789-3.544-1.539-9.128-7-9C183.199,121.175,188.268,127.33,193,131z M153,111c1.313,4.021,1.03,9.636,6,10
			C161.071,117.134,159.29,109.712,153,111z M260,59c-10.587-1.489-26.008-9.069-33-7c-4.609,1.364-13.045,2.271-14,8
			c1.822,3.722,4.858,0.014,8,2c3.696,2.637,7.832,4.835,12,7c2.603,12.174,18.531,8.121,31,5c13.268-3.321,28.965-10.092,34-15
			C285.914,61.277,273.095,60.842,260,59z M197,69c4.935,4.399,4.622,14.045,13,15c-2.029-5.651-7.924-12.725-7-18
			c4.572,1.761,2.357,10.31,9,10C211.859,66.281,201.669,57.876,197,69z M219,77c-2.065-5.269-2.612-12.055-9-13
			C211.84,69.493,212.459,76.208,219,77z M226,81c-2.203-6.797-3.834-14.166-10-17C218.948,70.052,220.77,77.23,226,81z M233,84
			c-2.643-6.357-5.427-12.573-10-17C226.606,72.394,227.115,80.885,233,84z M202,83c-1.58-5.42-3.923-10.077-8-13
			C187.551,73.632,193.734,84.739,202,83z M231,74c2.813,5.206,6.223,18.27,12,17c-3.368-6.308-8.517-16.137-13-18
			C230.61,73.057,231.184,73.149,231,74z M190,84c0.221-0.779,0.837-1.163,2-1c0.039-3.705-1.536-5.797-3-8c-1,0-2,0-3,0
			C184.466,78.457,185.987,83.245,190,84z M193,98c-3.649-7.018-6.046-15.288-12-20C178.096,83.166,187.292,99.422,193,98z M216,85
			c0.429-4.429-1.667-6.333-5-7C209.793,79.937,211.503,85.64,216,85z M222,88c4.297-1.776-0.523-7.776-4-8
			C218.679,83.321,218.913,87.087,222,88z M183,96c-0.194-4.038-1.723-14.773-9-15C173.537,85.695,178.162,93.334,183,96z M177,95
			c-1.38-4.953-2.908-9.759-7-12C166.553,86.442,170.048,95.783,177,95z M197,85c2.473,3.86,2.089,10.578,9,10
			C209.448,89.379,202.807,81.366,197,85z M158,88c3.305,1.5-2.078,2.445-1,5c7.326,2.674,3.435,16.565,13,17
			c-0.328-9.005-5.34-13.327-7-21c2.923,0.744,1.935,5.398,6,5c-1.6-3.067-0.598-8.736-5-9C163.096,87.096,158.355,85.355,158,88z
			 M198,99c4.146-4.142-1.647-11.183-5-14c-0.667,0-1.333,0-2,0C190.517,88.776,193,97.453,198,99z M213,92
			c-0.089-3.911-1.224-6.776-6-6C208.192,88.808,208.625,92.375,213,92z M237,93c1.322-1.823-0.57-6.834-4-7
			C232.976,89.69,233.447,92.886,237,93z M232,94c0.132-2.465,0.151-4.818-1-6c-1,0-2,0-3,0C226.727,89.567,228.042,94.608,232,94z
			 M162,110c2.192-7.381-6.716-11.813-7-20c-1,0-2,0-3,0C150.62,97.537,155.714,106.837,162,110z M222,99
			c0.802-3.469-1.489-3.844-1-7c-1.333,0-2.667,0-4,0C217.58,95.42,217.717,99.283,222,99z M225,97c3.41,0.753,3.9-3.82,1-4
			C225.686,94.352,224.577,94.91,225,97z M217,102c1.047-2.025-0.074-8.796-5-8C212.279,98.054,212.533,102.134,217,102z M142,106
			c4.698,4.969,4.741,14.592,10,19c0.294-2.039,2.706-1.961,3-4c-1.999-6.014-8.25-13.067-7-19c2.259,2.407,1.224,8.11,7,7
			c-1.887-5.113-2.794-11.206-7-14C145.479,98.146,142.534,100.867,142,106z M176,111c1.555-4.847-3.15-11.303-7-14
			C171.532,101.468,169.369,110.631,176,111z M174,98c1.757,4.267,3.065,11.96,9,9C182.388,102.002,179.525,94.855,174,98z M206,101
			c0.521-1.479,1.479-2.521,2-4c-1.333,0-2.667,0-4,0C203.721,99.279,204.241,100.759,206,101z M188,104c1.617-2.117-0.845-6.56-5-6
			C182.326,102.27,185.67,105.83,188,104z M198,100c-0.711,5.62,7.652,16.947,7,10C205.072,110.99,204.717,95.352,198,100z M210,108
			c3.518-2.161,2.506-4.308,2-9c-1,0-2,0-3,0C208.337,101.27,206.415,107.385,210,108z M139,116c-2.039-0.558-1.961-3.009-4-1
			c-0.788,8.229,7.853,20.73,9,27c-6.43-4.57-5.432-16.568-12-21c-5.664,7.12,5.356,13.646,5,22c5.479,0.188,9.482,1.852,14,3
			C150.105,136.811,141.712,126.684,139,116z M148,127c-0.591-8.742-3.596-15.071-8-20C136.083,113.605,142.509,123.534,148,127z
			 M184,115c-0.022-2.356,1.723-2.944,1-6c-1.333,0-2.667,0-4,0C180.959,112.041,180.418,115.582,184,115z M165,118
			c3.169-2.18,0.902-7.32-4-7C159.678,112.823,161.57,117.834,165,118z M169,112C165.379,116.723,174.854,113.331,169,112L169,112z
			 M175,114c1.68,2.987,2.017,7.316,6,8C182.767,118.461,179.483,108.313,175,114z M133,142c3.104-3.542-2.076-12.239-6-15
			C123.304,130.373,127.042,141.805,133,142z"/>
		<path fill-rule="evenodd" clip-rule="evenodd" d="M363,112c-2.412,9.042,0.59,17.262,2,27c-6.254-6.928-1.701-20.805-5-30
			c-1.768-4.928-6.44-6.642-9-10c1.655-3.139,5.513,2.825,8,5c3.158,2.763,5.993,6,9,7c9.071-4.753,25.926-5.388,37-5
			c-9.563,4.104-27.122,0.211-34,7c4.458,5.875,10.165,10.501,17,14c9.144-4.799,19.996-10.489,33-6
			c-10.342,0.002-23.712,0.255-30,7c5.091,18.786,27.926,2.361,44,9c-9.023,2.817-21.886-2.741-29,3c-0.133,6.8,7.607,5.726,9,11
			c11.303,0.645,21.276-2.828,27,4c-4.787-2.238-11.77-4.088-18-2c7.512,9.488,21.918,12.082,28,23
			c-13.86-12.14-31.121-20.878-47-31c1.923,10.077,7.688,16.312,11,25c-5.701-7.632-10.61-16.056-13-27
			c-6.511-4.823-10.992-11.675-19-15c-1.442,8.786,4.669,18.657,6,28c-3.961-8.372-7.406-17.261-8-29
			C376.683,120.984,372.013,114.321,363,112z"/>
		<path fill-rule="evenodd" clip-rule="evenodd" d="M287,101c1.249,3.282-4.974,7.668-7,11c0.931,6.85-0.06,17.955-1,26
			c-2.354-5.38-0.644-15.292,0-21c-8.282,0.385-10.021,7.313-15,11c0.458,12.639-1.724,30.811-5,43c-0.822-11.162,3.312-26.017,3-40
			c-8.304,4.029-11.668,12.998-20,17c-1.049,14.284-5.136,25.53-9,37c0.409,3.606-1.826,1.37-1-1c3.455-9.879,6.445-20.221,8-32
			c-14.417,7.916-27.036,17.631-41,26c0.149-4.54,15.012-8.299,15-13c19.881-7.119,32.19-21.81,46-35c0.301-2.635-1.385-3.282-4-3
			C272.554,124.555,277.834,110.834,287,101z"/>
		<path fill-rule="evenodd" clip-rule="evenodd" d="M261,111c2.965-2.898,8.233,0.383,12,0C272.53,114.845,266.133,108.986,261,111z
			"/>
		<path fill-rule="evenodd" clip-rule="evenodd" d="M242,125c0.659,4.326-7.006,0.327-8,3C231.77,126.026,239.97,126.027,242,125z"
			/>
		<path fill-rule="evenodd" clip-rule="evenodd" d="M248,126c-2.095-2.459,3.575,0.739,6,0C256.571,127.983,249.049,126.637,248,126
			z"/>
		<path fill-rule="evenodd" clip-rule="evenodd" d="M177,136c2.456-1.411,4.969,5.664,6,9C179.794,143.206,179.08,138.92,177,136z"
			/>
		<path fill-rule="evenodd" clip-rule="evenodd" d="M368,148c-2.364-1.302-1.928-5.405-3-8C366.97,141.696,367.683,144.65,368,148z"
			/>
		<path fill-rule="evenodd" clip-rule="evenodd" d="M216,170c3.022,2.767-2.383,5.561-2,9C211.583,176.839,216.105,173.162,216,170z
			"/>
		<path fill-rule="evenodd" clip-rule="evenodd" d="M193,180c-1.733,1.267-2.62,3.38-6,3C188.891,181.891,190.505,180.506,193,180z"
			/>
		<path fill-rule="evenodd" clip-rule="evenodd" d="M280,195c-0.395-2.15,7.61,3.393,11,4c4.94-0.598-1.04,2.931-1,0
			C284.436,199.897,283.203,196.464,280,195z"/>
		<path fill-rule="evenodd" clip-rule="evenodd" d="M375,197C375.771,201.047,368.184,202.104,375,197L375,197z"/>
		<path fill-rule="evenodd" clip-rule="evenodd" d="M341,244c5.677,0.004,11.152,8.838,14,15
			C349.46,254.873,347.692,246.974,341,244z"/>
	</g>
</g>
</svg>
