<?xml version="1.0" standalone="no"?>
<!DOCTYPE svg PUBLIC "-//W3C//DTD SVG 20010904//EN"
 "http://www.w3.org/TR/2001/REC-SVG-20010904/DTD/svg10.dtd">
<svg version="1.0" xmlns="http://www.w3.org/2000/svg"
 width="198.000000pt" height="600.000000pt" viewBox="0 0 198.000000 600.000000"
 preserveAspectRatio="xMidYMid meet">
<g transform="translate(0.000000,600.000000) scale(0.100000,-0.100000)"
fill="#000000" stroke="none">
<path d="M1 5898 c-1 -20 2 -38 7 -40 12 -5 70 -133 77 -171 11 -55 -11 -139
-46 -178 -17 -19 -26 -26 -19 -17 6 9 9 22 5 29 -4 6 -9 45 -11 87 -2 41 -6
78 -9 80 -13 13 18 -1602 31 -1617 7 -8 34 22 34 38 0 23 80 142 148 219 50
57 211 204 299 272 17 14 77 62 133 108 147 120 100 67 -69 -78 -249 -213
-376 -356 -449 -505 -43 -88 -67 -153 -59 -162 3 -2 47 16 99 41 51 26 109 48
128 50 19 2 68 9 109 15 90 14 571 14 571 0 0 -5 -57 -10 -132 -10 -298 -3
-377 -8 -470 -30 -149 -35 -218 -71 -273 -144 -54 -70 -55 -80 -54 -850 0
-739 15 -2127 23 -2205 11 -117 68 -239 131 -282 23 -15 77 -36 125 -48 153
-37 168 -42 200 -62 40 -24 34 -34 -8 -12 -18 8 -44 17 -59 19 -16 2 -28 4
-28 5 0 1 -13 3 -30 5 -202 21 -249 35 -285 83 -14 18 -28 28 -37 25 -11 -4
-10 -10 6 -27 12 -12 21 -25 21 -28 0 -3 -19 -8 -42 -11 -44 -6 -68 -27 -68
-61 0 -19 0 -19 14 -1 20 28 90 37 166 22 19 -4 60 -9 90 -13 87 -9 308 -63
390 -96 41 -17 83 -32 94 -34 10 -2 49 -19 87 -38 38 -19 69 -33 69 -30 0 2
24 -8 53 -22 74 -38 245 -94 286 -94 50 0 32 11 -72 41 -105 31 -200 69 -207
84 -2 6 9 13 26 16 25 5 26 7 10 14 -11 5 -28 2 -45 -7 -33 -20 -53 -3 -46 39
3 17 -1 36 -10 47 -19 24 -30 15 -16 -12 13 -25 14 -62 2 -62 -5 0 -32 12 -61
26 -28 14 -83 36 -123 50 -39 13 -87 37 -107 52 -83 66 -148 92 -261 105 -60
7 -135 55 -168 106 -64 102 -61 36 -70 1666 -4 817 -4 1494 1 1511 11 41 64
114 83 114 8 0 15 4 15 9 0 7 98 53 120 56 3 1 39 9 80 18 76 17 490 47 696
50 141 2 156 -6 189 -106 35 -110 71 -144 179 -172 31 -8 59 -15 62 -15 9 0
-7 62 -33 128 -29 71 -47 86 -149 125 -39 15 -80 34 -90 42 -17 13 -10 14 62
11 44 -2 92 -10 106 -17 14 -8 45 -25 69 -38 33 -19 61 -26 116 -27 69 -3 76
-1 175 50 57 28 104 56 106 60 2 5 -22 19 -52 31 -30 12 -74 34 -99 48 -38 23
-54 26 -124 24 -75 -2 -82 -4 -147 -46 -52 -34 -82 -47 -129 -53 -76 -10 -100
-4 -69 18 12 8 43 21 69 29 80 24 118 64 143 148 12 39 26 80 32 90 5 11 7 21
5 24 -10 9 -83 -17 -137 -49 -61 -37 -94 -86 -105 -156 -8 -55 -40 -87 -97
-96 -22 -4 -188 -4 -367 0 -280 5 -339 4 -421 -10 -103 -18 -186 -40 -239 -62
-18 -8 -36 -12 -39 -9 -3 3 0 5 6 5 6 0 16 17 22 38 40 131 143 255 425 512
77 70 163 149 190 175 117 112 167 129 227 76 42 -36 99 -55 152 -49 42 5 166
55 166 67 0 3 -35 25 -77 49 -91 50 -139 55 -211 18 -26 -13 -67 -27 -92 -31
l-45 -7 30 27 c17 14 42 37 58 51 25 24 133 61 144 50 9 -9 68 17 107 48 39
30 94 130 112 201 4 17 14 40 22 53 8 12 13 24 11 27 -7 6 -232 -65 -256 -80
-48 -32 -74 -73 -100 -155 -23 -74 -33 -92 -80 -139 -30 -29 -56 -52 -58 -49
-7 7 16 82 31 99 24 27 47 108 41 148 -5 38 -65 171 -77 171 -12 0 -78 -135
-85 -172 -5 -28 -1 -50 20 -97 15 -33 33 -65 40 -71 12 -10 13 -40 1 -77 -9
-29 -88 -100 -266 -238 -154 -121 -210 -169 -313 -271 -108 -107 -156 -162
-173 -199 l-18 -40 -7 200 c-4 110 -12 326 -18 479 -15 382 -15 377 12 417 18
27 36 37 96 56 71 21 112 48 133 87 14 26 58 149 55 153 -2 1 -39 -8 -83 -22
-109 -33 -164 -87 -177 -172 -3 -18 -16 -47 -29 -65 l-23 -33 -3 78 c-2 62 1
85 15 107 73 117 77 126 81 185 3 57 0 67 -57 180 -54 110 -60 117 -60 83z
m283 -425 c-19 -61 -83 -128 -131 -134 -5 -1 -14 -4 -21 -7 -30 -11 -19 8 28
51 27 25 50 48 50 51 0 14 -21 3 -65 -36 -42 -37 -47 -39 -40 -18 15 51 60 94
121 117 32 12 62 22 66 22 3 1 0 -20 -8 -46z m600 -230 c27 -55 33 -152 11
-193 -12 -23 -14 -20 -20 48 -10 99 -28 93 -23 -8 2 -44 1 -80 -3 -80 -10 0
-39 69 -45 109 -5 30 0 52 20 95 14 30 26 60 26 65 0 21 10 10 34 -36z m400
-15 c-13 -34 -24 -66 -24 -70 0 -23 -50 -79 -85 -97 -42 -21 -133 -46 -140
-39 -2 2 32 35 75 73 43 39 79 73 79 78 2 17 -22 3 -76 -45 -113 -103 -106
-102 -77 -14 20 58 34 83 58 101 40 31 98 55 144 61 20 2 38 7 41 9 2 3 10 5
17 5 9 0 5 -18 -12 -62z m-77 -348 l54 -29 -48 -21 c-80 -36 -111 -36 -181 -1
-67 34 -78 46 -34 37 72 -13 147 -17 137 -7 -12 12 -45 19 -99 20 -46 1 -39
14 14 30 47 13 93 5 157 -29z m-337 -4 c0 -2 -7 -7 -16 -10 -8 -3 -12 -2 -9 4
6 10 25 14 25 6z m606 -513 c-3 -10 -7 -30 -10 -44 -9 -56 -46 -105 -103 -136
-24 -14 -55 -18 -38 -5 24 17 87 103 80 110 -8 8 -82 -72 -94 -102 -17 -42
-18 3 -2 51 21 62 36 77 109 113 69 35 65 34 58 13z m274 -229 c44 -20 80 -40
80 -43 0 -13 -164 -82 -206 -88 -37 -5 -54 0 -109 28 -36 18 -65 36 -65 40 0
3 44 7 97 8 53 1 104 6 112 11 27 15 -47 21 -136 12 -46 -4 -83 -6 -83 -3 0 9
101 65 130 73 44 12 98 1 180 -38z m-371 -158 c54 -28 75 -54 102 -133 l19
-55 -28 7 c-79 19 -135 66 -156 129 -9 26 -16 50 -16 53 0 4 23 -17 50 -45 28
-29 57 -52 66 -52 9 0 -7 22 -40 57 -74 74 -74 77 3 39z"/>
<path d="M56 532 c-3 -6 -1 -14 5 -17 15 -10 25 3 12 16 -7 7 -13 7 -17 1z"/>
<path d="M90 400 c0 -5 7 -10 15 -10 8 0 15 5 15 10 0 6 -7 10 -15 10 -8 0
-15 -4 -15 -10z"/>
<path d="M160 395 c0 -9 5 -15 11 -13 6 2 11 8 11 13 0 5 -5 11 -11 13 -6 2
-11 -4 -11 -13z"/>
<path d="M120 371 c0 -16 38 -56 46 -48 4 4 -5 19 -19 33 -15 15 -27 21 -27
15z"/>
<path d="M195 361 c-7 -12 12 -24 25 -16 11 7 4 25 -10 25 -5 0 -11 -4 -15 -9z"/>
<path d="M270 354 c0 -9 5 -14 12 -12 18 6 21 28 4 28 -9 0 -16 -7 -16 -16z"/>
<path d="M952 324 c-12 -8 -22 -22 -22 -31 0 -14 4 -13 23 4 12 11 31 25 42
31 20 11 20 11 0 12 -11 0 -31 -7 -43 -16z"/>
<path d="M492 289 c2 -6 8 -10 13 -10 5 0 11 4 13 10 2 6 -4 11 -13 11 -9 0
-15 -5 -13 -11z"/>
<path d="M440 260 c0 -5 5 -10 10 -10 6 0 10 5 10 10 0 6 -4 10 -10 10 -5 0
-10 -4 -10 -10z"/>
<path d="M562 259 c2 -6 8 -10 13 -10 5 0 11 4 13 10 2 6 -4 11 -13 11 -9 0
-15 -5 -13 -11z"/>
<path d="M500 245 c0 -8 5 -15 10 -15 6 0 10 7 10 15 0 8 -4 15 -10 15 -5 0
-10 -7 -10 -15z"/>
<path d="M50 235 c0 -2 6 -8 13 -14 10 -8 14 -7 14 2 0 8 -6 14 -14 14 -7 0
-13 -1 -13 -2z"/>
<path d="M27 194 c-4 -4 -7 -14 -7 -23 0 -11 3 -12 11 -4 6 6 10 16 7 23 -2 6
-7 8 -11 4z"/>
<path d="M1336 143 c-12 -12 -6 -33 9 -33 8 0 15 6 15 14 0 17 -14 28 -24 19z"/>
<path d="M1432 129 c2 -6 8 -10 13 -10 5 0 11 4 13 10 2 6 -4 11 -13 11 -9 0
-15 -5 -13 -11z"/>
</g>
</svg>
