<?xml version="1.0" standalone="no"?>
<!DOCTYPE svg PUBLIC "-//W3C//DTD SVG 20010904//EN"
 "http://www.w3.org/TR/2001/REC-SVG-20010904/DTD/svg10.dtd">
<svg version="1.0" xmlns="http://www.w3.org/2000/svg"
 width="600.000000pt" height="911.000000pt" viewBox="0 0 600.000000 911.000000"
 preserveAspectRatio="xMidYMid meet">
<g transform="translate(0.000000,911.000000) scale(0.100000,-0.100000)"
fill="#000000" stroke="none">
<path d="M2990 8985 c-5 -14 -13 -38 -16 -53 -4 -15 -25 -56 -47 -92 -57 -93
-69 -118 -62 -130 3 -5 2 -10 -3 -10 -11 0 -27 -47 -23 -68 1 -7 -3 -29 -10
-49 -9 -28 -9 -37 1 -43 7 -4 10 -17 7 -29 -3 -12 -2 -21 3 -21 4 0 11 -16 14
-35 4 -19 11 -35 17 -35 6 0 8 -4 5 -9 -3 -5 1 -14 9 -21 8 -7 15 -19 15 -26
0 -8 5 -14 10 -14 6 0 15 -11 20 -25 5 -14 13 -25 18 -25 5 0 14 -19 21 -42 7
-24 17 -51 22 -60 12 -24 12 -148 -1 -148 -5 0 -9 -9 -7 -19 1 -11 -2 -19 -8
-18 -5 1 -9 5 -8 8 1 4 -7 15 -17 24 -11 10 -20 24 -20 31 0 7 -5 14 -10 16
-6 2 -15 31 -21 66 -6 34 -16 62 -21 62 -6 0 -8 6 -5 14 3 8 -1 17 -9 20 -8 3
-14 10 -14 15 0 12 -46 58 -88 88 -17 13 -49 25 -71 29 -23 4 -41 10 -41 14 0
4 -24 11 -52 14 -29 4 -56 12 -59 18 -4 6 -14 8 -23 5 -14 -5 -14 -9 -1 -34 8
-15 15 -36 15 -45 0 -9 4 -19 10 -23 5 -3 7 -12 3 -20 -3 -8 -1 -15 5 -15 5 0
13 -16 16 -35 4 -19 11 -35 16 -35 5 0 12 -10 15 -22 9 -28 64 -88 82 -88 7 0
13 -4 13 -9 0 -11 59 -35 78 -32 8 1 20 -3 28 -10 7 -6 25 -9 39 -7 14 3 25 2
25 -2 0 -4 11 -11 24 -14 26 -6 80 -71 71 -85 -3 -5 -1 -12 5 -16 11 -7 15
-347 4 -358 -4 -4 -8 -107 -9 -229 -1 -123 -4 -236 -7 -253 -3 -16 -9 -174
-13 -350 -4 -176 -11 -328 -16 -337 -6 -10 -5 -19 1 -23 5 -3 10 -22 10 -41 0
-46 -10 -38 -51 41 -38 74 -231 284 -397 430 -53 47 -104 92 -113 100 -9 8
-19 15 -23 15 -5 0 -34 23 -66 50 -32 28 -61 50 -64 50 -4 0 -17 9 -29 20 -52
46 -97 82 -97 75 0 -3 -12 7 -26 24 -14 17 -31 31 -37 31 -6 0 -20 9 -32 20
-31 30 -147 123 -177 143 -16 10 -28 24 -28 33 0 8 -7 17 -15 20 -8 3 -17 21
-21 40 -3 19 -9 36 -13 39 -15 9 -1 67 30 127 19 35 39 66 44 70 6 4 6 8 1 8
-5 0 -3 7 5 16 16 19 15 164 -2 174 -6 4 -10 9 -10 11 2 8 -24 69 -29 69 -3 0
-14 20 -25 45 -11 25 -23 45 -27 45 -5 0 -8 7 -8 16 0 35 -27 3 -71 -84 -26
-50 -44 -94 -41 -97 3 -3 0 -5 -6 -5 -15 0 -17 -166 -2 -175 6 -4 8 -10 5 -15
-5 -8 32 -80 47 -91 18 -12 48 -85 48 -116 0 -34 -14 -44 -24 -18 -3 8 -10 15
-16 15 -14 0 -95 80 -124 123 -14 20 -28 53 -32 74 -4 21 -10 43 -14 48 -4 6
-14 36 -21 69 -7 32 -19 60 -26 63 -7 3 -13 10 -13 17 0 31 -142 136 -185 136
-8 0 -15 4 -15 9 0 5 -9 7 -20 4 -11 -3 -20 -1 -20 4 0 5 -31 15 -70 22 -38 7
-73 17 -76 23 -3 5 -12 7 -20 4 -7 -3 -27 2 -43 12 -34 19 -51 10 -29 -15 9
-10 22 -37 29 -60 7 -24 16 -43 20 -43 4 0 10 -18 14 -40 4 -22 11 -40 17 -40
5 0 6 -9 3 -20 -3 -11 -2 -20 3 -20 6 0 13 -12 17 -27 3 -15 15 -39 26 -54 10
-15 19 -31 19 -36 0 -28 140 -130 161 -118 5 4 9 2 9 -4 0 -5 26 -12 58 -16
31 -3 67 -11 79 -17 12 -6 33 -8 47 -6 19 4 36 -4 65 -28 22 -19 42 -34 46
-34 3 0 18 -13 31 -30 14 -16 39 -40 56 -52 28 -20 32 -20 43 -5 18 24 31 21
44 -11 12 -28 41 -61 95 -110 14 -12 26 -30 26 -38 0 -11 -10 -6 -30 16 -16
18 -30 29 -30 26 0 -3 -13 8 -29 24 -15 17 -32 30 -38 30 -5 0 -19 9 -31 21
-12 11 -27 17 -32 14 -6 -3 -10 -1 -10 4 0 6 -18 11 -39 11 -36 0 -102 25
-109 42 -2 4 -10 4 -19 1 -8 -3 -18 -1 -22 5 -17 28 -222 31 -240 4 -3 -5 -23
-15 -44 -23 -20 -7 -37 -15 -37 -19 0 -3 -25 -18 -55 -35 -30 -16 -53 -34 -51
-40 2 -5 9 -9 15 -7 6 1 11 -2 11 -7 0 -5 13 -12 30 -16 16 -4 30 -11 30 -16
0 -6 5 -7 10 -4 6 3 10 2 10 -4 0 -6 16 -13 35 -17 19 -3 35 -11 35 -16 0 -6
7 -8 15 -5 8 4 17 2 20 -3 8 -13 132 -13 140 0 3 5 12 7 20 3 8 -3 15 0 15 6
0 6 6 11 14 11 8 0 28 11 44 25 17 14 34 25 39 25 4 0 14 9 21 20 7 11 19 20
26 20 8 0 16 5 18 11 3 9 9 9 23 1 11 -6 37 -14 58 -17 20 -3 37 -10 37 -15 0
-6 4 -9 8 -8 4 2 50 -35 101 -82 51 -47 100 -89 110 -95 19 -10 23 -15 243
-218 75 -70 140 -127 144 -127 11 0 254 -244 254 -256 0 -6 10 -19 21 -30 31
-27 109 -130 109 -143 0 -6 4 -11 9 -11 5 0 11 -8 14 -17 3 -10 13 -29 21 -43
26 -43 76 -156 76 -173 0 -10 5 -17 10 -17 6 0 10 -7 10 -16 0 -9 -3 -14 -7
-12 -48 25 -135 62 -148 63 -5 0 -14 3 -20 6 -5 4 -32 10 -60 14 -27 4 -54 11
-60 15 -15 12 -155 30 -234 30 -38 0 -82 5 -100 11 -21 7 -36 8 -44 1 -16 -12
-98 -13 -114 0 -7 6 -26 6 -45 2 -46 -11 -69 -11 -451 -13 -234 -2 -343 1
-352 9 -7 6 -17 9 -23 8 -6 -2 -30 14 -55 34 -35 29 -44 42 -40 61 3 14 0 28
-6 31 -6 4 -11 22 -11 39 0 58 -20 105 -65 155 -48 53 -121 102 -152 102 -10
0 -29 7 -41 16 -12 8 -27 12 -32 9 -6 -3 -10 -1 -10 4 0 6 -13 11 -30 11 -29
0 -40 -13 -21 -24 5 -3 12 -23 16 -43 4 -21 11 -44 17 -50 6 -7 8 -22 5 -33
-3 -11 -2 -20 3 -20 4 0 11 -16 14 -35 4 -19 11 -35 17 -35 6 0 8 -4 5 -9 -9
-14 71 -98 122 -126 25 -14 68 -31 94 -36 27 -6 48 -15 48 -20 0 -5 6 -9 13
-9 8 0 24 -11 37 -25 l23 -25 -86 0 c-47 0 -88 4 -92 10 -3 5 -13 6 -21 3 -17
-6 -56 11 -97 44 -16 13 -33 23 -38 23 -6 0 -25 11 -43 25 -18 14 -38 25 -44
25 -7 0 -12 5 -12 11 0 5 -4 8 -9 5 -5 -4 -11 -1 -13 6 -6 18 -209 18 -230 1
-8 -7 -18 -10 -22 -6 -4 4 -10 3 -14 -2 -13 -19 -228 -120 -246 -116 -10 2
-36 -19 -36 -30 0 -5 9 -9 20 -9 11 0 20 -4 20 -10 0 -5 5 -10 11 -10 21 0
208 -97 221 -115 4 -5 8 -6 8 -1 0 5 6 4 12 -2 7 -5 29 -13 48 -16 19 -4 45
-12 57 -18 17 -8 29 -8 45 0 13 6 45 13 72 16 33 4 73 21 124 51 41 25 78 45
83 45 5 0 9 4 9 9 0 15 48 22 157 22 97 0 137 -7 105 -18 -7 -3 -26 -16 -43
-30 -22 -19 -38 -24 -64 -21 -19 2 -35 1 -35 -3 0 -3 -18 -9 -40 -13 -22 -3
-40 -10 -40 -15 0 -5 -11 -12 -24 -15 -13 -3 -49 -33 -79 -66 -45 -50 -56 -70
-67 -120 -7 -33 -17 -60 -21 -60 -5 0 -9 -10 -9 -23 0 -12 -7 -33 -16 -45 -15
-21 -14 -22 15 -22 17 0 31 4 31 9 0 5 9 7 20 4 12 -3 20 0 20 7 0 6 10 10 23
9 27 -3 107 21 107 33 0 4 5 8 12 8 14 0 97 62 98 73 0 5 9 21 19 36 11 15 25
56 32 91 19 98 86 161 161 152 20 -2 39 1 42 7 8 13 76 15 76 3 0 -5 82 -12
183 -16 358 -13 462 -19 465 -28 2 -5 64 -8 137 -7 74 0 137 -1 142 -4 4 -3
45 -8 91 -12 45 -4 82 -12 82 -17 0 -6 11 -7 25 -4 14 4 25 2 25 -3 0 -5 18
-12 40 -16 22 -4 40 -11 40 -17 0 -6 6 -8 14 -5 7 3 17 2 22 -2 5 -4 28 -14
52 -21 45 -14 162 -112 162 -136 0 -8 4 -14 10 -14 5 0 12 -11 16 -25 3 -14
10 -25 14 -25 5 0 6 -9 3 -20 -3 -12 0 -20 7 -20 8 0 10 -8 6 -24 -3 -14 -3
-27 1 -29 5 -3 8 -72 7 -154 0 -81 -4 -978 -8 -1993 -7 -1771 -15 -2364 -32
-2392 -5 -7 -7 -25 -5 -40 1 -16 -1 -28 -6 -28 -5 0 -14 -26 -21 -58 -8 -37
-19 -61 -32 -70 -11 -7 -20 -19 -20 -27 0 -8 -4 -15 -9 -15 -5 0 -11 -9 -14
-20 -3 -11 -13 -23 -24 -27 -10 -3 -22 -12 -26 -20 -4 -7 -15 -13 -22 -13 -8
0 -15 -5 -15 -12 0 -6 -3 -8 -6 -5 -4 3 -16 0 -28 -8 -11 -8 -30 -15 -43 -15
-12 0 -25 -4 -28 -10 -3 -5 -19 -7 -35 -3 -17 3 -36 1 -42 -4 -7 -6 -44 -13
-82 -16 -37 -4 -74 -11 -81 -17 -6 -5 -15 -7 -18 -3 -4 3 -25 -8 -46 -25 -22
-18 -45 -32 -50 -32 -6 0 -16 -9 -23 -20 -7 -11 -17 -20 -22 -20 -4 0 -24 -14
-43 -30 -18 -17 -42 -30 -53 -30 -10 0 -21 -4 -25 -10 -3 -5 -12 -7 -20 -3 -8
3 -15 0 -15 -6 0 -6 -4 -11 -9 -11 -5 0 -20 -4 -33 -9 -13 -5 -27 -10 -33 -11
-5 -1 -19 -9 -30 -16 -11 -8 -27 -14 -37 -14 -10 0 -18 -5 -18 -11 0 -6 -9 -9
-20 -6 -11 3 -20 2 -20 -3 0 -4 -8 -10 -17 -13 -10 -3 -29 -12 -43 -20 -95
-52 -113 -59 -121 -46 -12 19 -11 69 1 69 6 0 10 9 10 20 0 11 -5 20 -10 20
-17 0 -32 -53 -26 -92 7 -44 -7 -50 -26 -11 -7 14 -30 40 -51 56 -30 25 -40
28 -50 18 -10 -11 -9 -15 3 -19 25 -9 92 -81 88 -94 -6 -18 -28 -22 -28 -5 0
18 -42 47 -70 47 -11 0 -20 -7 -20 -15 0 -9 9 -15 23 -15 25 0 47 -17 47 -37
0 -7 -7 -13 -15 -13 -8 0 -15 -4 -15 -9 0 -5 -12 -12 -27 -16 -15 -3 -46 -15
-70 -26 -23 -10 -48 -19 -55 -19 -7 0 -26 -7 -42 -15 -30 -16 -174 -47 -214
-46 -13 1 -22 -5 -22 -15 0 -13 10 -15 67 -9 38 4 73 10 78 13 6 4 20 5 33 3
13 -1 28 1 35 6 7 5 32 16 57 23 25 8 56 20 70 27 14 7 40 16 58 19 17 3 32
10 32 15 0 5 7 9 16 9 14 0 109 40 144 61 8 5 26 14 40 20 14 6 61 29 105 50
44 21 91 41 105 44 14 4 39 12 55 20 71 31 91 38 103 36 6 -1 12 3 12 9 0 5
10 10 23 10 12 0 35 7 51 15 15 8 32 12 37 9 6 -3 15 -1 22 4 7 5 28 13 47 17
19 4 40 12 47 17 7 5 21 7 33 3 12 -4 27 -2 33 4 14 11 188 31 268 31 29 0 49
4 49 11 0 7 15 10 40 7 22 -2 40 0 40 4 0 5 10 8 23 8 13 0 28 5 35 12 9 9 12
6 12 -15 0 -15 -5 -27 -12 -27 -6 0 -8 -3 -4 -7 8 -9 -74 -93 -91 -93 -7 0
-13 -4 -13 -10 0 -5 -5 -10 -11 -10 -6 0 -32 -10 -58 -23 -25 -13 -65 -29 -89
-37 -23 -7 -42 -17 -42 -22 0 -4 -6 -8 -13 -8 -29 0 -65 -27 -122 -92 -32 -37
-64 -77 -70 -88 -10 -20 -62 -54 -97 -66 -10 -4 -18 -10 -18 -15 0 -12 60 0
87 17 13 8 23 11 23 7 0 -4 17 9 38 28 70 67 127 107 170 120 23 6 42 16 42
22 0 5 11 6 25 3 14 -4 25 -2 25 3 0 5 23 12 50 16 28 4 50 11 50 17 0 6 7 8
15 5 8 -4 17 -2 20 3 4 6 13 10 21 10 42 0 131 57 200 129 41 42 74 82 74 89
0 7 12 17 28 23 15 5 34 12 42 16 8 3 20 5 27 4 6 -1 14 3 18 9 8 13 72 13 81
-1 3 -6 15 -9 25 -6 10 3 21 1 24 -3 3 -5 34 -12 70 -15 36 -4 65 -12 65 -17
0 -5 28 -8 63 -7 35 1 68 0 73 -4 5 -3 38 -9 72 -13 34 -3 62 -11 62 -15 0 -5
11 -7 25 -3 15 4 25 2 25 -4 0 -6 25 -14 55 -17 30 -4 55 -11 55 -16 0 -5 6
-6 14 -3 8 3 17 1 21 -5 3 -6 16 -11 28 -11 13 0 32 -7 44 -15 12 -9 26 -15
30 -14 8 2 31 -5 73 -24 14 -6 31 -9 38 -8 6 1 12 -2 12 -7 0 -6 17 -13 38
-17 20 -4 51 -15 67 -25 17 -10 45 -21 63 -25 17 -3 32 -10 32 -14 0 -4 18
-14 40 -21 22 -7 40 -16 40 -19 0 -4 20 -13 45 -20 25 -7 45 -17 45 -21 0 -5
15 -11 33 -15 17 -4 42 -13 55 -21 12 -8 27 -12 32 -9 6 3 10 2 10 -3 0 -6 16
-13 35 -16 19 -4 35 -11 35 -15 0 -5 27 -14 60 -21 33 -7 60 -17 60 -22 0 -6
11 -7 24 -4 13 3 26 2 28 -4 4 -11 95 -17 105 -6 12 12 -16 23 -93 36 -41 6
-76 15 -79 20 -3 4 -28 14 -55 21 -28 7 -50 16 -50 20 0 4 -15 10 -32 14 -18
4 -42 13 -54 20 -11 7 -39 19 -62 26 -63 19 -52 49 19 49 31 0 39 14 13 24
-30 12 -56 6 -91 -21 l-36 -27 8 23 c8 27 60 78 87 87 24 7 23 24 -2 24 -23 0
-100 -66 -100 -86 0 -8 -5 -14 -10 -14 -7 0 -8 18 -4 49 5 39 3 54 -12 75 -11
14 -25 26 -33 26 -11 0 -11 -3 2 -17 15 -18 22 -47 19 -90 -2 -28 -30 -30 -63
-5 -20 15 -69 41 -89 47 -3 1 -18 7 -33 13 -16 7 -35 12 -43 12 -8 0 -14 4
-14 9 0 5 -9 7 -20 4 -11 -3 -20 0 -20 6 0 6 -6 11 -14 11 -8 0 -27 5 -43 11
-15 6 -28 9 -28 7 0 -1 -14 7 -32 20 -17 12 -34 22 -38 22 -3 0 -20 14 -38 30
-18 17 -44 36 -59 43 -16 6 -28 15 -28 19 0 3 -17 12 -37 19 -21 6 -41 16 -44
21 -3 5 -31 12 -62 15 -32 3 -57 9 -57 12 0 3 -20 5 -45 3 -30 -3 -45 0 -45 8
0 7 -8 9 -20 5 -11 -4 -20 -2 -20 4 0 6 -8 11 -18 11 -10 0 -27 7 -38 15 -12
8 -24 11 -28 8 -3 -3 -6 -1 -6 5 0 7 -6 12 -14 12 -19 0 -106 87 -106 106 0 8
-7 17 -15 20 -8 4 -15 10 -15 14 0 5 -5 21 -12 37 -6 15 -10 32 -9 37 1 4 -2
13 -8 20 -11 14 -29 127 -35 231 -3 44 -8 814 -11 1710 -3 897 -7 1882 -8
2191 -2 463 0 564 12 577 7 10 10 17 6 17 -4 0 4 15 19 34 14 19 26 38 26 42
0 8 69 74 77 74 3 0 16 9 31 20 14 11 45 25 69 31 24 6 43 15 43 20 0 5 18 12
40 15 22 4 43 10 46 15 2 4 11 6 19 2 8 -3 15 0 15 5 0 6 32 14 70 18 39 4 72
10 75 14 2 3 38 5 81 3 42 -2 81 1 88 6 6 5 115 12 241 16 127 4 234 9 238 12
5 3 64 4 132 4 68 -1 126 2 129 7 3 6 47 8 98 6 134 -4 148 -6 148 -15 0 -5 5
-9 11 -9 22 0 68 -58 75 -96 3 -21 11 -44 16 -51 5 -6 8 -17 7 -25 -6 -26 38
-104 77 -136 58 -49 57 -48 100 -63 21 -8 41 -16 44 -19 7 -7 129 -37 134 -33
4 4 -11 76 -21 103 -4 8 -5 21 -4 28 1 6 -2 12 -8 12 -5 0 -12 18 -16 40 -4
22 -15 50 -24 62 -10 13 -20 30 -24 40 -6 16 -34 35 -89 60 -16 7 -28 16 -28
20 0 4 -7 8 -16 8 -8 0 -25 5 -37 12 -12 7 -32 11 -44 9 -13 -1 -23 1 -23 6 0
5 -17 15 -37 22 -43 15 -65 30 -59 40 3 4 56 6 119 6 90 -1 120 -5 141 -18 14
-10 26 -15 26 -12 0 4 7 0 15 -7 35 -31 50 -43 55 -42 7 2 54 -19 60 -27 10
-14 87 -29 143 -29 64 0 147 17 147 31 0 5 8 9 19 9 10 0 24 7 31 15 7 8 16
12 21 9 5 -3 9 -1 9 4 0 5 18 15 39 22 22 7 42 19 45 26 3 7 21 16 40 20 20 3
36 10 36 14 0 5 14 11 31 15 41 9 25 25 -42 42 -28 7 -57 19 -65 27 -7 8 -27
17 -44 21 -16 4 -30 11 -30 17 0 6 -3 8 -7 5 -3 -4 -21 5 -40 19 -18 14 -37
23 -42 19 -5 -3 -11 1 -13 7 -6 18 -229 18 -250 1 -8 -7 -18 -10 -21 -6 -4 3
-7 1 -7 -5 0 -7 -5 -12 -11 -12 -7 0 -32 -15 -58 -33 -25 -18 -64 -41 -86 -52
-22 -11 -42 -23 -45 -27 -9 -11 -193 -14 -196 -3 -6 18 70 62 118 69 26 4 50
11 53 17 4 5 10 7 15 4 4 -3 10 2 14 10 3 8 11 15 17 15 20 0 86 74 100 113 7
20 17 37 22 37 4 0 7 8 5 18 -1 9 1 22 5 29 4 6 10 33 14 60 3 26 12 54 20 61
30 30 -2 54 -40 30 -12 -8 -43 -21 -69 -29 -27 -7 -48 -17 -48 -20 0 -4 -13
-10 -29 -14 -16 -3 -32 -13 -35 -21 -3 -8 -11 -14 -19 -14 -28 0 -94 -95 -88
-127 1 -7 -2 -13 -8 -13 -5 0 -12 -28 -16 -62 -4 -35 -11 -73 -16 -85 -10 -28
-85 -67 -121 -64 -16 1 -28 -2 -28 -8 0 -15 -406 -15 -415 -1 -8 13 -671 14
-679 1 -3 -5 -44 -12 -91 -16 -47 -4 -87 -10 -90 -15 -3 -4 -14 -6 -25 -3 -11
3 -26 1 -33 -5 -6 -5 -36 -15 -66 -21 -30 -6 -60 -16 -67 -22 -6 -5 -16 -9
-20 -8 -16 4 -64 -13 -64 -22 0 -5 -4 -8 -9 -7 -4 2 -17 -6 -27 -17 -11 -12
-16 -16 -12 -10 4 7 5 15 2 18 -3 3 3 16 15 28 11 12 23 39 26 58 4 20 13 47
21 61 8 14 20 37 25 53 6 15 15 27 20 27 5 0 9 5 9 12 0 6 11 26 25 44 14 18
25 36 25 40 0 5 9 17 20 29 11 11 49 54 84 96 72 84 465 469 479 469 5 0 36
27 68 60 32 33 61 60 65 60 3 0 53 45 111 100 58 55 109 98 114 94 5 -3 12 1
15 9 3 8 15 18 27 22 35 12 117 15 117 4 0 -5 7 -9 15 -9 7 0 19 -8 24 -17 6
-10 11 -15 11 -11 0 5 21 -8 46 -27 25 -19 54 -35 64 -35 10 0 21 -3 23 -7 6
-10 124 -9 134 0 3 4 12 7 19 7 7 0 25 5 41 12 15 6 31 11 36 10 4 -1 7 1 7 5
0 5 25 19 55 33 30 14 55 30 55 35 0 6 -16 17 -35 24 -19 7 -35 17 -35 23 0 6
-3 8 -6 5 -4 -3 -18 3 -32 13 -13 11 -31 20 -38 20 -8 0 -14 4 -14 8 0 17 -69
33 -140 33 -70 0 -140 -16 -140 -32 0 -4 -26 -13 -57 -19 -32 -7 -66 -16 -75
-21 -21 -11 -58 -12 -57 -1 1 11 147 137 164 140 8 2 15 7 15 12 0 5 7 7 15 4
8 -4 21 -2 28 4 6 5 40 13 75 17 34 4 65 11 68 16 3 5 10 7 15 3 22 -13 179
89 179 117 0 5 9 18 20 29 11 11 20 29 20 39 0 11 5 23 10 26 6 4 8 11 5 16
-4 5 -2 9 4 9 5 0 12 18 16 40 4 22 11 42 15 45 5 3 7 12 3 20 -3 8 -1 15 5
15 6 0 14 15 18 32 3 18 12 37 19 43 7 5 16 21 20 34 7 23 6 23 -31 16 -22 -4
-42 -11 -45 -16 -3 -6 -10 -9 -15 -8 -5 1 -16 -1 -24 -4 -8 -3 -42 -11 -74
-18 -33 -6 -67 -15 -75 -19 -9 -4 -35 -14 -58 -21 -24 -7 -43 -16 -43 -21 0
-4 -6 -8 -14 -8 -18 0 -103 -84 -111 -110 -4 -11 -11 -20 -16 -20 -5 0 -9 -6
-8 -12 2 -13 -16 -87 -28 -118 -3 -8 -5 -23 -4 -32 1 -10 -2 -18 -7 -18 -5 0
-12 -15 -16 -32 -7 -34 -129 -168 -152 -168 -7 0 -14 -6 -17 -12 -2 -7 -8 -10
-12 -5 -5 4 -3 17 3 30 6 12 13 39 17 60 3 21 14 47 23 57 35 39 41 49 52 91
7 24 14 48 17 53 8 12 7 105 -1 113 -3 3 -6 13 -6 22 0 23 -93 210 -105 210
-12 1 -105 -163 -105 -183 0 -8 -4 -17 -10 -21 -5 -3 -7 -12 -4 -19 3 -8 1
-17 -5 -21 -13 -8 -15 -82 -2 -89 5 -3 12 -22 16 -43 4 -20 15 -48 26 -61 10
-14 19 -29 19 -34 0 -6 9 -21 20 -35 21 -27 28 -93 9 -93 -5 0 -7 -5 -4 -10 3
-6 -3 -23 -14 -39 -12 -16 -21 -33 -21 -38 0 -10 -45 -53 -56 -53 -5 0 -24
-16 -41 -35 -18 -19 -36 -35 -41 -35 -5 0 -19 -11 -32 -25 -13 -14 -28 -25
-33 -25 -5 0 -18 -11 -29 -25 -11 -14 -24 -25 -30 -25 -5 0 -25 -15 -44 -32
-51 -50 -100 -88 -113 -88 -6 0 -11 -4 -11 -10 0 -5 -20 -23 -45 -40 -52 -36
-123 -95 -181 -150 -23 -22 -45 -40 -50 -40 -13 0 -279 -273 -299 -307 -11
-18 -23 -33 -28 -33 -15 0 -56 -55 -57 -75 0 -23 -26 -65 -41 -65 -5 0 -9 92
-9 228 0 125 -4 232 -9 238 -5 5 -14 257 -21 561 -10 438 -10 559 0 589 17 51
96 117 128 106 7 -2 19 1 27 8 8 6 23 9 35 5 11 -3 20 -2 20 3 0 5 14 12 30
16 35 6 127 98 136 134 4 12 10 22 14 22 5 0 11 18 15 40 4 22 11 40 17 40 5
0 6 9 3 21 -4 12 -3 24 3 28 6 3 14 19 18 35 6 26 5 28 -12 21 -10 -4 -39 -12
-64 -18 -25 -6 -47 -14 -50 -17 -3 -3 -30 -12 -61 -18 -43 -10 -65 -22 -100
-56 -45 -44 -69 -72 -69 -80 0 -3 -5 -17 -12 -33 -6 -15 -10 -38 -9 -50 1 -13
-3 -23 -9 -23 -6 0 -10 -6 -9 -12 2 -19 -12 -58 -21 -58 -11 0 -54 -71 -56
-91 0 -9 -4 -21 -7 -26 -4 -5 -7 -78 -8 -162 0 -84 -3 -150 -7 -147 -6 6 -7
28 -12 197 -1 53 -6 102 -10 109 -11 18 9 60 26 53 11 -4 14 16 14 110 0 106
2 120 26 164 15 26 33 60 41 75 8 15 20 31 26 35 14 9 41 61 42 80 0 6 4 15 8
19 4 4 7 44 7 88 -1 59 -6 92 -20 121 -11 22 -19 45 -20 51 0 6 -7 17 -14 24
-8 6 -20 28 -27 48 -7 20 -15 39 -19 42 -10 8 -48 91 -55 123 -9 34 -23 35
-35 2z m40 -111 c0 -8 5 -14 10 -14 6 0 10 -8 10 -18 0 -9 19 -53 42 -97 39
-75 41 -85 42 -167 0 -58 -4 -91 -13 -102 -8 -9 -11 -19 -7 -23 3 -3 -4 -20
-17 -37 -12 -17 -29 -44 -37 -60 -8 -16 -23 -31 -33 -34 -17 -4 -17 -5 0 -19
10 -8 12 -11 4 -7 -10 5 -13 3 -9 -7 3 -8 0 -19 -7 -25 -9 -9 -14 -5 -22 16
-8 22 -7 29 9 39 11 7 16 17 11 24 -4 7 2 5 12 -3 17 -14 18 -13 11 30 -4 25
-10 92 -12 148 -2 57 -6 108 -10 113 -14 23 -23 -7 -20 -69 2 -37 -1 -73 -6
-79 -7 -9 -7 -18 1 -27 10 -11 10 -20 1 -37 -10 -17 -9 -23 1 -30 10 -6 10
-11 1 -22 -7 -8 -11 -19 -10 -25 2 -5 0 -10 -4 -11 -5 -1 -9 2 -9 7 -1 4 -14
23 -29 42 -15 19 -33 53 -40 75 -7 22 -16 48 -21 57 -12 24 -12 128 0 128 5 0
15 25 21 55 6 30 17 58 23 62 7 5 23 31 37 58 14 28 31 58 39 67 15 19 31 15
31 -8z m-385 -515 c11 -5 39 -13 62 -19 31 -8 54 -24 92 -67 28 -31 51 -64 51
-72 0 -9 6 -28 14 -43 20 -39 8 -42 -22 -6 -35 41 -120 108 -138 108 -8 0 -14
-7 -14 -15 0 -8 4 -14 9 -12 8 2 151 -130 151 -140 0 -8 -65 9 -71 19 -3 5
-10 8 -15 7 -27 -7 -124 62 -124 88 0 8 -6 16 -14 19 -8 3 -18 20 -22 37 -3
18 -11 38 -16 45 -6 6 -7 12 -4 12 4 0 -2 13 -13 29 -11 15 -18 31 -15 34 5 5
44 -6 89 -24z m815 11 c0 -5 -5 -10 -12 -10 -6 0 -8 -3 -5 -7 4 -3 3 -11 -2
-17 -5 -6 -14 -31 -21 -54 -14 -53 -104 -152 -138 -152 -12 0 -22 -5 -22 -11
0 -6 -9 -8 -20 -4 -11 4 -20 2 -20 -4 0 -6 -9 -11 -19 -11 -11 0 -21 -6 -24
-12 -2 -7 -8 -10 -13 -5 -4 4 29 42 74 85 45 43 82 81 82 86 0 12 -44 -5 -53
-20 -4 -8 -14 -14 -22 -14 -8 0 -29 -18 -46 -40 -34 -42 -49 -50 -49 -25 0 8
5 15 10 15 6 0 10 6 8 13 -4 15 43 96 71 121 12 11 21 16 21 12 0 -4 10 0 22
8 12 9 30 16 40 16 10 0 18 4 18 9 0 5 9 7 20 4 11 -3 20 -1 20 5 0 9 17 14
68 21 6 0 12 -3 12 -9z m-2415 -341 c4 -6 13 -8 21 -5 7 3 16 1 19 -4 4 -6 15
-10 26 -10 10 0 19 -4 19 -9 0 -5 8 -7 18 -4 10 2 31 -3 47 -11 17 -9 36 -16
43 -16 19 0 121 -63 122 -75 0 -5 11 -19 24 -30 13 -11 24 -23 25 -27 1 -4 9
-25 18 -45 9 -21 16 -46 15 -55 0 -10 3 -18 9 -18 5 0 9 -10 9 -23 0 -13 5
-28 11 -34 6 -6 7 -13 2 -16 -5 -3 -47 33 -93 79 -47 46 -90 84 -97 84 -7 0
-17 9 -23 20 -6 12 -21 20 -37 20 -22 0 -9 -16 98 -120 111 -106 121 -119 97
-120 -15 0 -30 5 -33 11 -4 5 -17 9 -28 8 -22 -2 -39 3 -87 23 -14 6 -31 12
-38 12 -7 1 -16 6 -20 11 -4 6 -19 18 -34 28 -16 10 -28 22 -28 28 0 6 -15 31
-32 57 -18 26 -32 52 -30 59 1 6 -2 14 -8 18 -5 3 -10 12 -10 20 0 8 -5 26
-12 42 -6 15 -10 32 -9 36 1 4 -5 18 -14 30 -8 12 -15 27 -15 34 0 16 16 17
25 2z m3932 -16 c-6 -16 -16 -31 -21 -34 -5 -4 -6 -11 -2 -17 3 -6 2 -13 -4
-17 -5 -3 -10 -12 -10 -20 0 -8 -5 -26 -12 -42 -6 -15 -10 -32 -9 -36 1 -5 -8
-21 -19 -37 -11 -15 -20 -32 -20 -37 -1 -13 -37 -53 -49 -53 -6 0 -11 -5 -11
-10 0 -6 -11 -15 -25 -20 -14 -5 -25 -14 -25 -20 0 -7 -8 -9 -20 -5 -11 3 -20
2 -20 -4 0 -5 -21 -13 -47 -17 -27 -3 -52 -9 -58 -13 -16 -9 -55 -12 -55 -4 0
11 86 93 97 93 5 0 38 29 73 65 46 47 61 68 53 76 -8 8 -17 5 -34 -10 -30 -25
-163 -149 -194 -178 -12 -13 -28 -23 -36 -23 -10 0 -10 3 -1 12 7 7 12 22 12
35 0 13 4 23 9 23 5 0 12 16 15 35 11 59 82 175 107 175 5 0 25 11 45 25 20
14 47 25 60 25 13 0 24 4 24 9 0 5 22 12 50 16 27 4 52 11 55 16 3 4 12 6 20
2 8 -3 15 0 15 6 0 6 11 11 25 11 23 0 24 -2 12 -27z m-639 -52 c17 -38 32
-76 32 -84 0 -9 5 -19 10 -22 6 -3 10 -33 10 -66 0 -33 -4 -59 -10 -59 -5 0
-10 -7 -10 -15 0 -9 -8 -32 -17 -53 l-17 -37 -10 109 c-8 75 -15 111 -24 114
-11 3 -13 -19 -10 -117 1 -67 0 -121 -3 -121 -12 0 -29 27 -22 33 3 4 2 7 -4
7 -5 0 -15 19 -22 43 -7 23 -17 50 -22 59 -12 23 -12 85 0 92 5 3 12 22 16 43
4 20 15 48 25 60 10 13 22 37 25 53 4 17 10 30 13 30 4 0 22 -31 40 -69z
m-2612 22 c20 -29 43 -79 43 -90 -1 -3 5 -9 11 -13 7 -5 13 -35 14 -76 1 -57
-4 -79 -26 -126 -16 -31 -28 -62 -28 -67 0 -6 -4 -11 -10 -11 -15 0 -23 67
-16 145 4 47 3 76 -4 80 -18 11 -31 -46 -29 -122 1 -40 -1 -76 -4 -79 -3 -3
-15 16 -28 42 -16 36 -21 67 -21 124 0 66 4 84 31 133 17 32 31 64 31 72 0 23
16 18 36 -12z m-236 -368 c0 -8 5 -15 12 -15 6 0 9 -2 6 -5 -3 -3 -13 -3 -22
1 -17 7 -22 34 -6 34 6 0 10 -7 10 -15z m1520 13 c4 -65 22 -677 35 -1242 2
-109 7 -201 10 -204 8 -8 45 29 45 45 0 8 18 45 40 83 22 38 40 73 40 78 0 6
7 13 16 16 8 3 13 10 10 15 -4 5 5 18 19 29 14 11 25 23 25 27 0 5 22 31 48
59 27 28 51 56 53 61 5 12 284 275 291 275 3 0 25 18 49 40 65 60 89 80 96 80
5 0 48 35 187 153 27 23 55 48 63 55 7 7 13 11 13 7 0 -3 16 10 37 30 20 19
41 35 47 35 13 -1 -138 -144 -209 -199 -27 -21 -70 -60 -95 -85 -24 -25 -47
-46 -51 -46 -3 0 -33 -27 -65 -60 -33 -33 -63 -60 -69 -60 -20 -1 -344 -365
-358 -402 -4 -10 -11 -18 -16 -18 -5 0 -12 -13 -16 -30 -4 -16 -11 -30 -16
-30 -5 0 -14 -12 -20 -27 -5 -16 -18 -46 -28 -68 -45 -99 -52 -115 -57 -144
-4 -17 -11 -34 -15 -37 -5 -3 -9 -16 -9 -30 0 -30 29 -33 55 -4 10 11 24 20
32 20 7 0 13 5 13 11 0 5 5 7 10 4 6 -3 10 -2 10 3 0 5 18 15 40 22 22 7 40
17 40 21 0 4 27 13 60 20 33 6 60 16 60 21 0 5 12 9 28 7 15 -1 34 1 42 5 49
21 218 30 577 30 347 1 418 -2 402 -18 -2 -3 -94 -6 -204 -7 -110 -1 -204 -4
-208 -7 -5 -2 -62 -4 -127 -3 -78 1 -121 -2 -125 -9 -4 -7 -30 -10 -64 -9 -32
1 -62 0 -67 -3 -5 -3 -38 -9 -74 -12 -36 -4 -70 -12 -77 -18 -7 -6 -19 -8 -28
-5 -8 4 -17 2 -20 -2 -2 -5 -25 -12 -50 -15 -25 -4 -45 -11 -45 -16 0 -5 -18
-15 -40 -21 -22 -7 -40 -16 -40 -21 0 -4 -7 -8 -15 -8 -8 0 -43 -27 -79 -60
-67 -63 -109 -134 -122 -205 -4 -22 -12 -43 -18 -47 -8 -6 -6 -11 4 -18 10 -6
11 -10 3 -10 -10 0 -13 -259 -13 -1259 0 -701 4 -1261 9 -1263 4 -1 11 -401
15 -888 8 -939 8 -935 17 -945 4 -3 4 -25 2 -49 -3 -26 -1 -46 6 -50 6 -4 11
-21 11 -37 0 -58 26 -146 66 -219 8 -14 20 -38 28 -55 14 -30 76 -96 76 -81 0
4 12 -2 26 -13 15 -12 33 -21 40 -21 8 0 14 -5 14 -11 0 -6 7 -9 15 -6 8 4 17
2 20 -2 2 -5 26 -12 52 -16 27 -4 53 -11 60 -17 6 -5 20 -8 30 -7 10 1 25 0
33 -4 8 -3 35 -8 60 -12 24 -3 49 -9 55 -14 5 -4 26 -14 45 -21 44 -17 100
-52 100 -63 0 -10 -43 2 -50 14 -3 4 -25 11 -48 15 -23 4 -42 11 -42 16 0 6
-11 8 -25 6 -14 -3 -25 -2 -25 2 0 4 -34 11 -75 15 -41 4 -75 11 -75 16 0 5
-31 9 -68 9 -77 0 -182 18 -182 31 0 5 -7 9 -16 9 -17 0 -71 55 -80 82 -6 19
-13 22 -38 12 -13 -5 -11 -12 14 -44 37 -47 38 -59 3 -56 -22 3 -28 9 -28 27
0 15 -7 25 -18 27 -18 4 -24 -22 -7 -33 6 -3 10 -11 10 -16 0 -6 -4 -8 -9 -4
-5 3 -12 1 -16 -5 -3 -5 -13 -10 -22 -10 -18 0 -113 -89 -113 -106 0 -17 -100
-107 -140 -126 -66 -31 -95 -41 -107 -39 -7 1 -13 -2 -13 -7 0 -6 -25 -13 -55
-17 -30 -3 -55 -10 -55 -15 0 -4 -18 -11 -39 -15 -22 -4 -61 -22 -88 -41 -44
-31 -70 -31 -44 0 14 16 104 62 141 71 14 3 34 10 45 15 64 29 101 43 108 42
4 -1 7 2 7 8 0 5 6 10 14 10 7 0 19 7 26 15 7 9 15 13 18 11 11 -12 91 101 97
137 4 20 11 37 17 37 6 0 8 7 5 15 -4 8 -2 17 3 20 6 4 10 16 10 29 0 25 21
76 33 76 4 0 7 12 7 26 0 23 -2 25 -15 14 -9 -7 -27 -37 -41 -67 -14 -29 -30
-53 -35 -53 -5 0 -28 -12 -50 -27 -36 -24 -54 -28 -135 -31 -52 -3 -94 -8 -94
-12 0 -4 -45 -9 -100 -12 -54 -3 -105 -10 -113 -16 -8 -7 -17 -9 -20 -5 -4 3
-12 1 -19 -4 -7 -6 -34 -14 -60 -17 -27 -4 -48 -11 -48 -17 0 -5 -7 -9 -15 -9
-36 0 2 35 65 60 19 8 37 17 40 22 3 4 39 12 80 19 41 6 83 15 92 20 10 5 39
9 64 9 50 0 124 18 124 30 0 5 10 10 23 14 27 7 123 100 145 141 68 128 89
237 102 535 9 213 20 1755 21 2962 0 401 4 630 10 634 6 4 7 10 0 17 -5 7 -11
148 -13 335 -2 261 -6 324 -17 331 -7 5 -11 13 -7 19 3 6 2 13 -4 17 -5 3 -10
14 -10 23 -1 31 -121 182 -145 182 -3 0 -22 11 -43 24 -20 13 -52 27 -69 31
-18 4 -33 10 -33 15 0 4 -20 11 -45 14 -24 4 -47 11 -50 15 -2 5 -16 6 -31 3
-14 -2 -29 0 -33 6 -4 6 -50 14 -104 18 -53 4 -97 10 -97 13 0 3 -50 5 -111 3
-61 -2 -116 1 -122 6 -7 5 -32 9 -57 9 -234 5 -440 17 -440 25 0 6 44 9 114 7
63 -2 118 0 122 4 4 4 13 2 21 -4 7 -7 25 -8 40 -5 52 12 173 16 173 6 0 -5 9
-10 20 -10 11 0 20 5 20 11 0 8 24 9 78 5 42 -3 86 -5 97 -5 72 4 323 -27 341
-42 8 -6 20 -9 29 -6 8 4 17 2 20 -2 2 -5 25 -12 50 -15 25 -4 45 -12 45 -17
0 -5 6 -9 13 -8 6 2 30 -6 52 -16 22 -10 43 -17 48 -17 4 1 7 -3 7 -8 0 -6 7
-10 15 -10 8 0 19 -9 25 -20 6 -11 20 -20 30 -20 16 0 20 7 20 33 0 18 -7 43
-16 55 -8 12 -12 27 -9 32 3 6 2 10 -3 10 -6 0 -13 16 -16 35 -4 19 -11 35
-16 35 -5 0 -7 7 -4 15 4 8 2 15 -4 15 -5 0 -13 12 -17 27 -3 15 -15 39 -26
54 -10 15 -19 32 -19 38 0 6 -5 11 -12 11 -6 0 -8 3 -5 7 4 3 -9 25 -28 49
-19 23 -35 46 -35 50 0 3 -16 21 -35 40 -19 18 -35 36 -35 41 0 10 -302 313
-313 313 -4 0 -32 22 -60 50 -68 65 -163 148 -270 237 -85 72 -133 128 -88
104 11 -7 25 -20 31 -31 6 -11 17 -20 25 -20 7 0 15 -4 17 -8 4 -11 215 -182
224 -182 4 0 14 -7 23 -15 9 -8 52 -44 96 -80 44 -36 107 -89 140 -117 96 -83
335 -329 335 -344 0 -8 6 -17 14 -20 8 -3 18 -19 21 -35 4 -16 10 -29 15 -29
8 0 22 -24 79 -138 16 -32 32 -51 41 -49 17 3 26 207 29 639 0 148 5 239 11
243 6 4 8 11 5 16 -4 5 -5 116 -4 247 1 130 1 249 1 265 -1 15 3 27 8 27 6 0
10 -1 10 -2z m1540 -8 c9 -6 10 -10 3 -10 -6 0 -18 -3 -27 -6 -11 -4 -16 -1
-16 10 0 18 17 21 40 6z m155 -160 c4 -6 14 -10 23 -9 16 2 72 -19 82 -31 3
-4 27 -17 54 -30 48 -23 49 -24 25 -33 -23 -8 -94 -40 -131 -58 -45 -22 -163
-1 -189 34 -3 5 -8 8 -10 6 -6 -3 -89 41 -89 47 0 4 15 4 33 0 17 -3 58 -6 90
-7 32 -1 60 -6 63 -11 9 -14 64 -9 64 6 0 16 -90 36 -162 36 -56 0 -64 16 -13
26 19 3 37 10 40 14 3 5 14 6 24 3 10 -3 22 0 25 6 9 14 63 14 71 1z m-3247
-32 c23 -6 42 -14 42 -18 0 -4 -37 -10 -82 -14 -45 -4 -87 -11 -93 -16 -7 -6
-15 -7 -18 -3 -4 3 -7 -1 -7 -10 0 -15 8 -16 58 -12 31 3 81 11 110 17 28 6
55 8 60 3 4 -4 1 -10 -6 -12 -7 -3 -26 -16 -41 -29 -16 -13 -34 -24 -40 -24
-6 0 -11 -5 -11 -11 0 -6 -7 -9 -15 -6 -8 4 -17 2 -20 -3 -9 -14 -135 -13
-135 1 0 6 -9 8 -20 4 -11 -4 -20 -2 -20 4 0 5 -16 13 -35 17 -19 3 -35 10
-35 16 0 5 -4 7 -9 4 -5 -3 -14 1 -21 9 -10 12 -9 15 4 15 9 0 16 3 16 8 0 4
20 16 45 27 25 11 45 23 45 27 0 4 18 11 40 14 22 4 42 10 45 14 4 7 56 -1
143 -22z m2866 -14 c4 -9 -4 -19 -19 -26 -14 -6 -25 -15 -25 -20 0 -4 -6 -8
-14 -8 -8 0 -21 -9 -29 -21 -9 -12 -18 -16 -21 -10 -4 5 4 21 16 34 13 14 31
36 41 50 18 27 41 27 51 1z m-149 -113 c-3 -6 -11 -11 -16 -11 -5 0 -4 6 3 14
14 16 24 13 13 -3z m-3355 -660 c3 -5 22 -14 43 -20 20 -7 37 -17 37 -22 0 -5
6 -9 14 -9 18 0 106 -95 106 -115 0 -8 4 -15 9 -15 5 0 7 -9 4 -20 -3 -11 0
-20 6 -20 6 0 11 -17 11 -39 0 -22 5 -41 12 -43 9 -3 9 -6 0 -11 -6 -5 -18 4
-29 20 -17 29 -53 76 -76 103 -7 8 -21 27 -30 43 -10 15 -22 27 -28 27 -16 0
-1 -53 17 -63 8 -4 14 -13 14 -19 0 -7 19 -34 42 -61 l42 -50 -39 7 c-22 4
-52 18 -67 31 -41 35 -78 81 -71 89 3 3 1 6 -5 6 -6 0 -13 14 -17 30 -4 17
-11 30 -17 30 -5 0 -8 10 -7 23 3 26 -8 75 -23 101 -9 17 -7 18 18 12 16 -4
31 -11 34 -15z m4430 -6 c0 -8 -5 -15 -11 -15 -6 0 -9 -9 -6 -20 3 -11 2 -22
-3 -25 -4 -2 -10 -19 -14 -37 -14 -76 -69 -144 -153 -190 -34 -19 -53 -24 -63
-18 -13 8 -12 10 2 10 9 0 19 9 23 20 3 10 19 30 36 44 16 14 29 28 29 33 0 4
9 19 20 33 35 45 22 56 -20 15 -22 -21 -40 -43 -40 -47 0 -4 -16 -24 -35 -44
-19 -19 -35 -40 -35 -45 0 -5 -7 -9 -16 -9 -8 0 -12 5 -9 11 4 6 13 38 21 71
8 33 20 65 27 73 6 7 23 27 37 44 14 17 30 31 36 31 6 0 17 7 24 15 7 8 17 12
22 9 6 -4 13 -3 17 2 9 14 64 38 79 35 6 -1 12 3 12 9 0 5 5 10 10 10 6 0 10
-7 10 -15z m-4592 -316 c2 -5 8 -6 14 -3 6 4 13 3 17 -2 3 -5 19 -16 35 -24
56 -29 66 -35 66 -42 0 -5 7 -8 15 -8 8 0 15 -5 15 -10 0 -7 -53 -10 -160 -8
-137 3 -160 1 -158 -12 2 -11 15 -14 51 -11 27 1 54 -3 62 -9 10 -9 48 -11
120 -8 58 2 105 0 105 -4 0 -5 -5 -8 -11 -8 -6 0 -43 -19 -82 -42 -65 -38 -80
-42 -154 -46 -76 -4 -170 9 -183 26 -7 9 -52 34 -128 72 -34 17 -60 35 -57 41
4 5 11 7 16 4 5 -4 21 2 37 12 15 10 43 25 62 34 71 33 95 43 105 45 6 0 17 4
25 7 8 3 24 8 35 11 30 6 149 -5 153 -15z m4896 2 c7 -6 16 -8 20 -4 4 4 10 3
14 -2 8 -12 64 -39 75 -37 4 1 7 -2 7 -6 0 -5 18 -15 40 -22 22 -7 40 -17 40
-21 0 -5 7 -6 15 -3 8 4 15 1 15 -5 0 -6 -28 -24 -62 -41 -35 -16 -74 -36 -88
-43 -71 -39 -92 -47 -152 -53 -85 -8 -158 9 -220 53 -26 18 -52 33 -58 33 -21
0 -9 18 13 19 71 4 312 19 315 20 11 6 -3 21 -20 22 -50 2 -158 -1 -240 -6
-60 -5 -88 -3 -88 4 0 6 5 11 12 11 6 0 25 10 42 23 43 32 94 58 136 68 44 10
168 3 184 -10z m-2620 -26 c-4 -8 -11 -12 -16 -9 -6 4 -5 10 3 15 19 12 19 11
13 -6z m166 8 c0 -5 -5 -15 -10 -23 -8 -12 -10 -11 -10 8 0 12 5 22 10 22 6 0
10 -3 10 -7z m-1924 -102 c13 3 64 -12 64 -20 0 -3 -12 -6 -27 -7 -16 0 -35
-4 -44 -8 -11 -5 -19 -2 -22 8 -8 21 3 52 13 36 4 -6 11 -10 16 -9z m3704 7
c0 -28 -16 -37 -56 -31 -22 3 -41 11 -41 17 0 8 9 11 23 8 12 -2 30 1 41 7 24
14 33 14 33 -1z m288 -13 c-3 -11 -28 -16 -39 -9 -5 3 -6 11 -3 19 6 15 48 6
42 -10z m-4293 5 c3 -6 -1 -7 -9 -4 -18 7 -21 14 -7 14 6 0 13 -4 16 -10z
m3719 -15 c4 -12 -4 -14 -39 -13 -52 3 -60 15 -12 21 17 2 35 5 38 5 4 1 9 -5
13 -13z m-3136 -2 c-21 -2 -57 -2 -80 0 -24 2 -7 4 37 4 44 0 63 -2 43 -4z
m-448 -118 c0 -8 -6 -15 -14 -15 -14 0 -136 -128 -136 -142 0 -23 35 0 96 62
68 69 94 84 94 55 0 -8 -5 -15 -10 -15 -6 0 -10 -6 -9 -12 3 -19 -30 -88 -41
-88 -6 0 -10 -6 -10 -14 0 -19 -97 -96 -121 -96 -10 0 -20 -4 -23 -9 -3 -5
-15 -7 -25 -4 -10 3 -22 0 -25 -6 -11 -16 -46 -13 -46 4 0 8 5 15 11 15 6 0 9
9 6 20 -3 12 1 33 9 48 8 15 14 32 14 38 0 20 69 102 92 110 13 4 25 9 28 13
6 8 93 51 103 51 4 0 7 -7 7 -15z m4051 -18 c24 -13 46 -24 49 -23 11 1 70
-39 70 -47 0 -5 11 -23 25 -41 14 -18 25 -40 25 -49 0 -9 5 -19 10 -22 6 -4
10 -14 8 -23 -1 -10 5 -31 14 -49 9 -17 14 -34 12 -36 -7 -6 -94 15 -94 24 0
4 -16 10 -36 14 -42 7 -119 74 -128 110 -4 14 -10 25 -15 25 -5 0 -12 18 -16
40 -4 22 -11 42 -16 46 -5 3 -6 10 -3 16 4 6 41 -24 84 -67 49 -49 84 -76 95
-73 13 2 -3 24 -64 88 -44 47 -81 86 -81 88 0 7 22 -1 61 -21z m-1944 -1140
c-2 -23 -3 -1 -3 48 0 50 1 68 3 42 2 -26 2 -67 0 -90z m-210 -349 c-3 -7 -5
-2 -5 12 0 14 2 19 5 13 2 -7 2 -19 0 -25z m210 -630 c-2 -13 -4 -3 -4 22 0
25 2 35 4 23 2 -13 2 -33 0 -45z m-220 -681 c-2 -23 -3 -1 -3 48 0 50 1 68 3
42 2 -26 2 -67 0 -90z m8 -117 c3 -5 1 -10 -4 -10 -6 0 -11 5 -11 10 0 6 2 10
4 10 3 0 8 -4 11 -10z m222 -132 c-3 -8 -6 -5 -6 6 -1 11 2 17 5 13 3 -3 4
-12 1 -19z m10 -154 c-1 -52 -5 -94 -8 -94 -3 0 -6 53 -6 118 -1 80 1 110 8
94 5 -13 8 -66 6 -118z m-10 -356 c-3 -8 -6 -5 -6 6 -1 11 2 17 5 13 3 -3 4
-12 1 -19z m-283 -1754 c3 -8 2 -12 -4 -9 -6 3 -10 1 -10 -5 0 -6 -5 -8 -10
-5 -8 5 -7 11 1 21 14 18 16 17 23 -2z m1041 -132 c-3 -3 -11 0 -18 7 -9 10
-8 11 6 5 10 -3 15 -9 12 -12z"/>
<path d="M3291 6214 c0 -11 3 -14 6 -6 3 7 2 16 -1 19 -3 4 -6 -2 -5 -13z"/>
<path d="M5341 5864 c0 -11 3 -14 6 -6 3 7 2 16 -1 19 -3 4 -6 -2 -5 -13z"/>
<path d="M3140 615 c0 -8 9 -15 20 -15 11 0 20 7 20 15 0 8 -9 15 -20 15 -11
0 -20 -7 -20 -15z"/>
<path d="M3249 628 c-11 -38 2 -58 27 -38 11 10 12 16 3 26 -10 12 -28 19 -30
12z"/>
<path d="M3655 600 c3 -5 8 -10 11 -10 2 0 4 5 4 10 0 6 -5 10 -11 10 -5 0 -7
-4 -4 -10z"/>
<path d="M3180 551 c0 -12 6 -21 16 -21 9 0 14 7 12 17 -5 25 -28 28 -28 4z"/>
<path d="M3302 544 c2 -11 11 -20 22 -22 13 -3 17 1 14 14 -2 11 -11 20 -22
22 -13 3 -17 -1 -14 -14z"/>
<path d="M3414 545 c-10 -25 7 -40 23 -20 7 11 13 22 13 27 0 14 -30 9 -36 -7z"/>
<path d="M3222 513 c5 -25 28 -28 28 -4 0 12 -6 21 -16 21 -9 0 -14 -7 -12
-17z"/>
<path d="M2270 505 c-7 -8 -10 -18 -7 -21 9 -10 48 7 44 19 -6 18 -23 19 -37
2z"/>
<path d="M2160 465 c0 -8 7 -15 15 -15 8 0 15 7 15 15 0 8 -7 15 -15 15 -8 0
-15 -7 -15 -15z"/>
<path d="M3768 452 c-20 -4 -22 -10 -8 -32 7 -11 12 -12 21 -3 16 16 7 39 -13
35z"/>
<path d="M2060 425 c0 -8 9 -15 20 -15 11 0 20 7 20 15 0 8 -9 15 -20 15 -11
0 -20 -7 -20 -15z"/>
<path d="M2130 425 c0 -10 10 -15 26 -15 22 0 25 2 14 15 -7 8 -19 15 -26 15
-8 0 -14 -7 -14 -15z"/>
<path d="M2220 420 c0 -15 7 -20 25 -20 27 0 32 9 13 28 -18 18 -38 14 -38 -8z"/>
<path d="M3676 413 c-12 -12 -6 -33 9 -33 8 0 15 6 15 14 0 17 -14 28 -24 19z"/>
<path d="M3854 409 c-3 -6 0 -17 8 -25 13 -13 16 -13 27 0 10 12 9 17 -8 25
-14 8 -22 8 -27 0z"/>
<path d="M3760 375 c0 -8 7 -15 15 -15 8 0 15 7 15 15 0 8 -7 15 -15 15 -8 0
-15 -7 -15 -15z"/>
<path d="M2894 366 c-9 -24 12 -44 28 -28 10 10 8 16 -5 29 -15 15 -17 15 -23
-1z"/>
<path d="M2815 340 c-9 -15 16 -43 27 -32 10 10 0 42 -12 42 -5 0 -12 -5 -15
-10z"/>
<path d="M2953 333 c-21 -8 -15 -33 7 -33 13 0 20 7 20 20 0 20 -5 23 -27 13z"/>
<path d="M2893 285 c-8 -9 -9 -15 0 -24 15 -15 37 -14 37 3 0 22 -23 36 -37
21z"/>
<path d="M3037 293 c-4 -3 -7 -15 -7 -25 0 -26 24 -17 28 10 3 21 -8 29 -21
15z"/>
<path d="M900 190 c0 -34 7 -38 26 -13 9 13 9 22 2 30 -17 21 -28 15 -28 -17z"/>
<path d="M5020 195 c0 -18 5 -25 20 -25 15 0 20 7 20 25 0 18 -5 25 -20 25
-15 0 -20 -7 -20 -25z"/>
<path d="M5165 210 c-3 -6 0 -17 8 -24 16 -16 37 -4 37 21 0 15 -36 18 -45 3z"/>
<path d="M782 183 c2 -10 10 -18 18 -18 8 0 16 8 18 18 2 12 -3 17 -18 17 -15
0 -20 -5 -18 -17z"/>
<path d="M2080 165 c0 -23 2 -24 20 -15 11 6 20 17 20 25 0 8 -9 15 -20 15
-15 0 -20 -7 -20 -25z"/>
<path d="M1960 135 c0 -8 7 -15 15 -15 8 0 15 7 15 15 0 8 -7 15 -15 15 -8 0
-15 -7 -15 -15z"/>
</g>
</svg>
